{"glyphs":{"0":{"ha":685,"x_min":35,"x_max":650,"o":"m 475 0 l 210 0 q 76 219 117 93 q 35 472 35 346 q 210 972 35 796 l 475 972 q 608 753 567 879 q 650 503 650 628 q 475 0 650 175 m 403 806 l 283 806 q 222 488 222 681 q 282 161 222 294 l 404 161 q 464 497 464 314 q 403 806 464 681 z "},"1":{"ha":396,"x_min":14,"x_max":319,"o":"m 125 0 l 125 806 l 14 806 l 14 972 l 319 972 l 319 0 l 125 0 z "},"2":{"ha":510,"x_min":28,"x_max":478,"o":"m 28 139 l 304 796 l 300 806 l 57 806 l 57 972 l 357 972 q 478 808 478 921 q 447 669 478 747 q 433 631 439 646 q 415 587 428 615 q 397 544 403 558 q 353 444 374 490 l 228 161 l 471 161 l 471 0 l 28 0 l 28 139 z "},"3":{"ha":568,"x_min":21,"x_max":510,"o":"m 319 571 l 319 564 q 510 304 510 504 q 456 122 510 203 q 338 0 403 42 l 21 0 l 21 161 l 260 161 q 297 222 276 176 q 318 315 318 268 q 256 444 318 403 l 143 444 l 143 596 l 311 790 l 304 806 l 26 806 l 26 972 l 361 972 q 479 814 479 922 q 403 654 479 731 l 319 571 z "},"4":{"ha":665,"x_min":44,"x_max":603,"o":"m 440 972 l 217 375 l 422 375 l 422 628 l 603 628 l 603 0 l 422 0 l 422 201 l 165 201 q 44 394 44 264 q 111 621 44 454 l 250 972 l 440 972 z "},"5":{"ha":615,"x_min":63,"x_max":560,"o":"m 350 626 l 456 626 q 560 446 560 556 q 513 297 560 379 q 464 219 499 272 l 321 0 l 106 0 l 388 446 l 383 458 l 63 458 l 63 972 l 518 972 l 518 806 l 247 806 l 247 608 q 350 626 289 626 z "},"6":{"ha":668,"x_min":46,"x_max":626,"o":"m 397 442 l 268 442 q 235 320 235 372 q 247 224 235 268 q 275 161 260 179 l 396 161 q 433 309 433 226 q 397 442 433 392 m 388 603 l 460 603 q 583 484 539 563 q 626 324 626 406 q 471 0 626 128 l 204 0 q 46 324 46 113 q 67 476 46 394 q 112 613 89 558 q 175 750 135 667 l 275 972 l 468 972 l 288 571 q 388 603 339 603 z "},"7":{"ha":517,"x_min":14,"x_max":510,"o":"m 26 0 l 306 806 l 14 806 l 14 972 l 510 972 l 510 843 l 222 0 l 26 0 z "},"8":{"ha":676,"x_min":35,"x_max":642,"o":"m 468 0 l 213 0 q 86 106 138 32 q 35 274 35 179 q 153 504 35 426 l 153 510 q 58 711 58 590 q 110 873 58 803 q 235 972 163 943 l 444 972 q 567 875 517 943 q 618 715 618 807 q 522 513 618 594 l 522 507 q 642 279 642 428 q 590 109 642 186 q 468 0 538 32 m 276 414 q 228 296 228 374 q 244 214 228 253 q 279 161 260 175 l 397 161 q 433 214 417 175 q 449 296 449 253 q 400 414 449 374 l 276 414 m 285 806 q 250 760 265 792 q 235 692 235 729 q 283 576 235 622 l 393 576 q 442 692 442 622 q 426 760 442 729 q 392 806 411 792 l 285 806 z "},"9":{"ha":650,"x_min":35,"x_max":615,"o":"m 264 531 l 393 531 q 426 652 426 600 q 415 746 426 704 q 388 806 403 788 l 265 806 q 228 663 228 746 q 264 531 228 581 m 274 369 l 201 369 q 78 488 122 410 q 35 649 35 567 q 200 972 35 854 l 457 972 q 615 649 615 860 q 486 222 615 489 l 386 0 l 193 0 l 374 401 q 274 369 322 369 z "},"\u0002":{"ha":375,"x_min":0,"x_max":0,"o":""}," ":{"ha":222,"x_min":0,"x_max":0,"o":""},"!":{"ha":308,"x_min":56,"x_max":253,"o":"m 76 188 l 232 188 l 232 0 l 76 0 l 76 188 m 253 972 l 232 528 l 232 335 l 76 335 l 76 528 l 56 972 l 253 972 z "},"\"":{"ha":488,"x_min":72,"x_max":415,"o":"m 86 665 l 72 972 l 226 972 l 213 665 l 86 665 m 275 665 l 261 972 l 415 972 l 401 665 l 275 665 z "},"#":{"ha":868,"x_min":47,"x_max":808,"o":"m 444 0 l 476 172 l 294 172 l 263 0 l 158 0 l 190 172 l 47 172 l 65 275 l 210 275 l 246 461 l 100 461 l 118 564 l 265 564 l 299 735 l 403 735 l 369 564 l 551 564 l 585 735 l 689 735 l 656 564 l 808 564 l 790 461 l 636 461 l 600 275 l 756 275 l 738 172 l 581 172 l 549 0 l 444 0 m 350 461 l 314 275 l 496 275 l 532 461 l 350 461 z "},"$":{"ha":549,"x_min":46,"x_max":519,"o":"m 363 950 l 500 950 l 500 783 l 231 783 l 226 775 l 451 419 q 519 233 519 310 q 426 28 519 93 l 361 28 l 361 -92 l 214 -92 l 214 28 l 58 28 l 58 189 l 353 189 l 357 197 l 100 596 q 46 754 46 682 q 167 950 46 899 l 215 950 l 215 1069 l 363 1069 l 363 950 z "},"%":{"ha":1078,"x_min":14,"x_max":1064,"o":"m 335 388 l 132 388 q 14 671 14 507 q 132 972 14 863 l 335 972 q 453 671 453 863 q 335 388 453 507 m 203 839 q 165 678 165 775 q 203 518 165 582 l 264 518 q 301 678 301 586 q 264 839 301 771 l 203 839 m 946 0 l 743 0 q 625 283 625 119 q 743 585 625 475 l 946 585 q 1064 283 1064 475 q 946 0 1064 119 m 814 451 q 776 291 776 388 q 814 131 776 194 l 875 131 q 913 291 913 199 q 875 451 913 383 l 814 451 m 307 0 l 615 972 l 772 972 l 458 0 l 307 0 z "},"&":{"ha":646,"x_min":42,"x_max":597,"o":"m 224 585 l 206 626 q 176 749 176 683 q 275 910 176 868 l 499 910 l 499 743 l 356 743 l 353 735 l 597 154 l 597 0 l 211 0 q 87 106 132 31 q 42 272 42 181 q 88 447 42 364 q 224 585 133 529 m 292 436 q 215 285 215 371 q 269 154 215 200 l 415 154 l 292 436 z "},"'":{"ha":251,"x_min":49,"x_max":203,"o":"m 63 665 l 49 972 l 203 972 l 189 665 l 63 665 z "},"(":{"ha":376,"x_min":49,"x_max":376,"o":"m 376 -208 l 226 -208 q 49 455 49 68 q 226 1111 49 842 l 376 1111 q 213 458 213 829 q 376 -208 213 86 z "},")":{"ha":376,"x_min":0,"x_max":328,"o":"m 150 -208 l 0 -208 q 164 458 164 86 q 0 1111 164 829 l 150 1111 q 328 455 328 842 q 150 -208 328 68 z "},"*":{"ha":522,"x_min":56,"x_max":467,"o":"m 214 1017 l 308 1017 l 314 874 l 439 910 l 467 822 l 346 778 l 424 658 l 350 604 l 261 717 l 172 604 l 99 658 l 178 775 l 56 822 l 83 910 l 207 874 l 214 1017 z "},"+":{"ha":478,"x_min":7,"x_max":471,"o":"m 7 403 l 7 538 l 471 538 l 471 403 l 7 403 m 171 232 l 171 710 l 304 710 l 304 232 l 171 232 z "},",":{"ha":311,"x_min":56,"x_max":256,"o":"m 56 0 l 56 206 l 256 206 l 256 124 q 232 -44 256 19 q 138 -207 208 -108 l 57 -168 q 138 0 124 -65 l 56 0 z "},"-":{"ha":356,"x_min":35,"x_max":321,"o":"m 35 321 l 35 479 l 321 479 l 321 321 l 35 321 z "},".":{"ha":311,"x_min":56,"x_max":256,"o":"m 56 206 l 256 206 l 256 0 l 56 0 l 56 206 z "},"/":{"ha":535,"x_min":17,"x_max":510,"o":"m 17 0 l 325 972 l 510 972 l 196 0 l 17 0 z "},":":{"ha":311,"x_min":56,"x_max":256,"o":"m 56 206 l 256 206 l 256 0 l 56 0 l 56 206 m 56 617 l 256 617 l 256 411 l 56 411 l 56 617 z "},";":{"ha":311,"x_min":56,"x_max":256,"o":"m 56 617 l 256 617 l 256 411 l 56 411 l 56 617 m 56 0 l 56 206 l 256 206 l 256 124 q 232 -44 256 19 q 138 -207 208 -108 l 57 -168 q 138 0 124 -65 l 56 0 z "},"<":{"ha":526,"x_min":28,"x_max":499,"o":"m 428 200 l 28 401 l 28 540 l 428 742 l 499 599 l 217 471 l 499 343 l 428 200 z "},"=":{"ha":478,"x_min":7,"x_max":471,"o":"m 7 514 l 7 649 l 471 649 l 471 514 l 7 514 m 7 236 l 7 371 l 471 371 l 471 236 l 7 236 z "},">":{"ha":526,"x_min":28,"x_max":499,"o":"m 499 401 l 99 200 l 28 343 l 310 471 l 28 599 l 99 742 l 499 540 l 499 401 z "},"?":{"ha":429,"x_min":42,"x_max":390,"o":"m 93 188 l 263 188 l 263 0 l 93 0 l 93 188 m 93 335 l 93 397 q 154 669 93 517 q 181 739 175 722 q 188 775 188 756 q 161 800 188 800 l 42 800 l 42 972 l 274 972 q 364 894 338 946 q 390 803 390 843 q 381 733 390 764 q 364 683 372 701 l 303 572 q 263 392 263 492 l 263 335 l 93 335 z "},"@":{"ha":1003,"x_min":35,"x_max":967,"o":"m 474 167 l 547 167 l 547 347 l 478 347 q 449 257 449 306 q 474 167 449 208 m 451 28 l 388 28 q 286 256 286 121 q 399 483 286 392 l 451 483 q 561 451 522 483 l 568 483 l 707 483 l 707 161 l 736 161 q 792 244 776 203 q 807 356 807 286 q 783 470 807 425 q 710 564 760 515 l 361 564 q 194 264 194 451 q 282 25 194 110 q 378 -49 324 -15 l 696 -49 l 696 -194 l 328 -194 q 110 -15 186 -121 q 35 264 35 90 q 313 710 35 529 l 774 710 q 967 361 967 565 q 928 184 967 256 q 806 28 890 113 l 588 28 l 569 64 q 524 34 549 40 q 451 28 500 28 z "},"A":{"ha":681,"x_min":14,"x_max":667,"o":"m 481 0 l 451 154 l 232 154 l 203 0 l 14 0 l 201 972 l 489 972 l 667 0 l 481 0 m 339 792 l 285 468 l 254 303 l 428 303 l 396 468 l 342 792 l 339 792 z "},"B":{"ha":696,"x_min":67,"x_max":661,"o":"m 67 0 l 67 972 l 463 972 q 583 885 531 947 q 636 733 636 822 q 533 514 636 576 l 533 508 q 661 286 661 438 q 485 0 661 113 l 67 0 m 256 571 l 393 571 q 454 685 454 608 q 397 806 454 761 l 256 806 l 256 571 m 256 161 l 399 161 q 444 218 424 179 q 464 296 464 257 q 447 367 464 335 q 406 414 431 399 l 256 414 l 256 161 z "},"C":{"ha":615,"x_min":42,"x_max":581,"o":"m 336 161 l 581 161 l 581 0 l 228 0 q 89 218 136 86 q 42 490 42 350 q 94 758 42 629 q 251 972 147 888 l 581 972 l 581 806 l 336 806 q 272 667 299 763 q 244 483 244 571 q 272 300 244 396 q 336 161 299 204 z "},"D":{"ha":708,"x_min":67,"x_max":667,"o":"m 256 161 l 381 161 q 442 303 419 210 q 465 488 465 396 q 383 806 465 706 l 256 806 l 256 161 m 67 0 l 67 972 l 469 972 q 667 498 667 797 q 482 0 667 199 l 67 0 z "},"E":{"ha":611,"x_min":67,"x_max":571,"o":"m 67 0 l 67 972 l 565 972 l 565 806 l 257 806 l 257 574 l 532 574 l 532 413 l 257 413 l 257 161 l 571 161 l 571 0 l 67 0 z "},"F":{"ha":588,"x_min":67,"x_max":574,"o":"m 67 0 l 67 972 l 574 972 l 574 806 l 257 806 l 257 563 l 532 563 l 532 401 l 257 401 l 257 0 l 67 0 z "},"G":{"ha":686,"x_min":42,"x_max":644,"o":"m 528 0 l 233 0 q 88 218 133 92 q 42 483 42 344 q 97 756 42 621 q 253 972 153 890 l 590 972 l 590 806 l 332 806 q 269 674 296 764 q 243 484 243 585 q 267 292 243 383 q 328 161 292 201 l 461 161 l 461 539 l 644 539 l 644 306 q 528 0 644 114 z "},"H":{"ha":736,"x_min":67,"x_max":669,"o":"m 257 0 l 67 0 l 67 972 l 257 972 l 257 581 l 479 581 l 479 972 l 669 972 l 669 0 l 479 0 l 479 403 l 257 403 l 257 0 z "},"I":{"ha":324,"x_min":67,"x_max":257,"o":"m 67 0 l 67 972 l 257 972 l 257 0 l 67 0 z "},"J":{"ha":453,"x_min":22,"x_max":394,"o":"m 22 161 l 165 161 q 197 235 190 193 q 204 407 204 278 l 204 972 l 394 972 l 394 472 q 391 328 394 379 q 374 211 388 276 q 242 0 347 88 l 22 0 l 22 161 z "},"K":{"ha":643,"x_min":67,"x_max":643,"o":"m 67 0 l 67 972 l 257 972 l 257 563 l 264 563 l 438 972 l 633 972 l 431 508 l 643 0 l 432 0 l 267 425 l 257 425 l 257 0 l 67 0 z "},"L":{"ha":574,"x_min":67,"x_max":546,"o":"m 67 0 l 67 972 l 257 972 l 257 161 l 546 161 l 546 0 l 67 0 z "},"M":{"ha":836,"x_min":46,"x_max":790,"o":"m 421 444 l 415 444 l 421 444 l 494 749 l 554 972 l 728 972 l 790 0 l 608 0 l 582 531 l 575 531 l 475 139 l 361 139 l 261 531 l 254 531 l 228 0 l 46 0 l 108 972 l 282 972 l 342 749 l 415 444 l 421 444 z "},"N":{"ha":696,"x_min":67,"x_max":629,"o":"m 500 0 l 240 538 l 233 535 l 242 371 l 242 0 l 67 0 l 67 972 l 207 972 l 463 414 l 469 417 l 454 588 l 454 972 l 629 972 l 629 0 l 500 0 z "},"O":{"ha":753,"x_min":42,"x_max":711,"o":"m 519 972 q 664 760 617 893 q 711 485 711 626 q 665 218 711 344 q 519 0 619 92 l 233 0 q 88 218 133 92 q 42 485 42 344 q 89 760 42 626 q 233 972 136 893 l 519 972 m 326 161 l 426 161 q 485 292 461 201 q 510 485 510 383 q 486 676 510 586 q 428 806 463 765 l 326 806 q 267 676 292 765 q 243 485 243 586 q 267 292 243 383 q 326 161 292 201 z "},"P":{"ha":682,"x_min":67,"x_max":647,"o":"m 254 806 l 254 458 l 378 458 q 454 642 454 521 q 434 739 454 693 q 386 806 414 785 l 254 806 m 67 0 l 67 972 l 443 972 q 592 844 538 931 q 647 644 647 758 q 590 432 647 529 q 422 294 533 335 l 254 294 l 254 0 l 67 0 z "},"Q":{"ha":753,"x_min":42,"x_max":711,"o":"m 519 972 q 664 760 617 893 q 711 485 711 626 q 665 218 711 344 q 519 0 619 92 l 474 0 l 517 -157 l 339 -157 l 296 0 l 233 0 q 88 218 133 92 q 42 485 42 344 q 89 760 42 626 q 233 972 136 893 l 519 972 m 326 161 l 426 161 q 485 292 461 201 q 510 485 510 383 q 486 676 510 586 q 428 806 463 765 l 326 806 q 267 676 292 765 q 243 485 243 586 q 267 292 243 383 q 326 161 292 201 z "},"R":{"ha":681,"x_min":67,"x_max":647,"o":"m 67 972 l 436 972 q 585 865 524 943 q 647 672 647 786 q 500 399 647 486 l 640 0 l 446 0 l 328 354 l 254 354 l 254 0 l 67 0 l 67 972 m 254 806 l 254 510 l 374 510 q 426 558 397 515 q 454 657 454 600 q 430 757 454 714 q 382 806 406 800 l 254 806 z "},"S":{"ha":539,"x_min":35,"x_max":508,"o":"m 156 972 l 489 972 l 489 806 l 222 806 l 218 797 l 440 392 q 508 206 508 269 q 415 0 508 65 l 47 0 l 47 161 l 335 161 l 339 169 l 89 618 q 35 776 35 715 q 156 972 35 921 z "},"T":{"ha":636,"x_min":14,"x_max":622,"o":"m 224 806 l 14 806 l 14 972 l 622 972 l 622 806 l 413 806 l 413 0 l 224 0 l 224 806 z "},"U":{"ha":731,"x_min":60,"x_max":671,"o":"m 307 161 l 424 161 q 467 228 454 194 q 481 329 481 263 l 481 972 l 671 972 l 671 399 q 667 288 671 328 q 650 192 664 249 q 519 0 626 90 l 211 0 q 81 192 104 88 q 60 399 60 276 l 60 972 l 250 972 l 250 329 q 263 228 250 263 q 307 161 276 194 z "},"V":{"ha":669,"x_min":7,"x_max":663,"o":"m 663 972 l 465 0 l 204 0 l 7 972 l 207 972 l 283 522 l 331 231 l 339 231 l 386 522 l 463 972 l 663 972 z "},"W":{"ha":894,"x_min":14,"x_max":881,"o":"m 546 0 l 449 574 l 443 574 l 343 0 l 149 0 l 14 972 l 200 972 l 239 686 l 268 364 l 275 364 l 326 685 l 369 972 l 526 972 l 568 685 l 621 364 l 628 364 l 656 686 l 694 972 l 881 972 l 746 0 l 546 0 z "},"X":{"ha":642,"x_min":18,"x_max":624,"o":"m 219 972 l 318 576 l 324 576 l 422 972 l 614 972 l 481 508 l 624 0 l 426 0 l 324 417 l 318 417 l 215 0 l 18 0 l 161 508 l 28 972 l 219 972 z "},"Y":{"ha":614,"x_min":0,"x_max":614,"o":"m 408 0 l 206 0 l 206 324 l 0 972 l 189 972 l 275 676 l 304 506 l 310 506 l 339 676 l 425 972 l 614 972 l 408 324 l 408 0 z "},"Z":{"ha":600,"x_min":33,"x_max":565,"o":"m 564 810 l 235 161 l 565 161 l 565 0 l 33 0 l 33 158 l 361 806 l 33 806 l 33 972 l 564 972 l 564 810 z "},"[":{"ha":344,"x_min":63,"x_max":324,"o":"m 63 -208 l 63 1111 l 324 1111 l 324 958 l 232 958 l 232 -56 l 324 -56 l 324 -208 l 63 -208 z "},"\\":{"ha":535,"x_min":14,"x_max":507,"o":"m 199 972 l 507 0 l 328 0 l 14 972 l 199 972 z "},"]":{"ha":344,"x_min":21,"x_max":282,"o":"m 282 1111 l 282 -208 l 21 -208 l 21 -56 l 113 -56 l 113 958 l 21 958 l 21 1111 l 282 1111 z "},"^":{"ha":606,"x_min":56,"x_max":550,"o":"m 56 503 l 215 972 l 379 972 l 550 503 l 382 458 l 297 710 l 225 458 l 56 503 z "},"_":{"ha":578,"x_min":0,"x_max":578,"o":"m 0 -299 l 0 -140 l 578 -140 l 578 -299 l 0 -299 z "},"`":{"ha":694,"x_min":189,"x_max":492,"o":"m 254 1010 l 492 871 l 436 758 l 189 867 l 254 1010 z "},"a":{"ha":636,"x_min":40,"x_max":582,"o":"m 394 321 l 246 321 q 217 231 217 285 q 247 146 217 176 l 394 146 l 394 321 m 96 710 l 440 710 q 550 595 524 660 q 576 419 576 531 l 576 211 q 582 0 576 96 l 424 0 l 399 50 q 246 0 344 0 l 158 0 q 40 224 40 78 q 161 456 40 371 l 292 456 q 393 422 346 456 l 393 492 q 346 564 393 546 l 96 564 l 96 710 z "},"b":{"ha":658,"x_min":60,"x_max":618,"o":"m 60 972 l 243 972 l 243 660 q 301 699 274 688 q 382 710 328 710 l 493 710 q 585 563 551 653 q 618 364 618 472 q 479 0 618 132 l 347 0 q 233 51 279 0 l 208 0 l 60 0 l 60 972 m 244 146 l 378 146 q 429 358 429 233 q 376 564 429 483 l 244 564 l 244 146 z "},"c":{"ha":542,"x_min":40,"x_max":508,"o":"m 232 361 q 250 242 232 303 q 300 146 268 182 l 508 146 l 508 0 l 204 0 q 40 361 40 131 q 215 710 40 592 l 508 710 l 508 564 l 300 564 q 232 361 232 493 z "},"d":{"ha":657,"x_min":40,"x_max":597,"o":"m 597 0 l 457 0 l 432 50 q 374 11 401 22 q 293 0 347 0 l 172 0 q 76 153 111 58 q 40 365 40 247 q 76 564 40 482 q 176 710 111 646 l 296 710 q 413 671 369 710 l 413 972 l 597 972 l 597 0 m 413 564 l 279 564 q 228 349 228 476 q 278 146 228 222 l 413 146 l 413 564 z "},"e":{"ha":631,"x_min":40,"x_max":597,"o":"m 381 564 l 276 564 q 242 494 256 539 q 229 408 229 450 l 428 408 q 417 495 431 450 q 381 564 403 540 m 569 146 l 569 0 l 217 0 q 80 162 119 65 q 40 357 40 258 q 213 710 40 585 l 438 710 q 564 565 531 642 q 597 411 597 489 q 585 278 597 333 l 239 278 q 263 205 243 246 q 307 146 283 164 l 569 146 z "},"f":{"ha":431,"x_min":13,"x_max":446,"o":"m 246 972 l 446 972 l 446 826 l 321 826 q 274 710 274 797 l 418 710 l 418 564 l 274 564 l 274 0 l 89 0 l 89 564 l 13 564 l 13 710 l 89 710 q 246 972 89 890 z "},"g":{"ha":651,"x_min":40,"x_max":597,"o":"m 597 710 l 597 74 q 570 -96 597 -32 q 463 -208 543 -160 l 146 -208 l 146 -64 l 383 -64 q 418 3 418 -43 l 418 85 q 254 42 367 42 l 153 42 q 40 354 40 176 q 76 563 40 482 q 182 710 113 644 l 285 710 q 428 651 375 710 l 453 710 l 597 710 m 413 564 l 278 564 q 228 366 228 478 q 271 182 228 254 l 413 182 l 413 564 z "},"h":{"ha":675,"x_min":60,"x_max":621,"o":"m 383 710 l 515 710 q 599 554 576 632 q 621 360 621 476 l 621 0 l 436 0 l 436 374 q 400 564 436 506 l 244 564 l 244 0 l 60 0 l 60 972 l 244 972 l 244 660 q 302 699 275 688 q 383 710 329 710 z "},"i":{"ha":303,"x_min":60,"x_max":243,"o":"m 60 0 l 60 710 l 243 710 l 243 0 l 60 0 m 60 972 l 243 972 l 243 785 l 60 785 l 60 972 z "},"j":{"ha":301,"x_min":-71,"x_max":242,"o":"m 60 710 l 242 710 l 242 71 q 217 -97 242 -35 q 113 -208 192 -160 l -71 -208 l -71 -62 l 25 -62 q 60 4 60 -42 l 60 710 m 60 972 l 242 972 l 242 771 l 60 771 l 60 972 z "},"k":{"ha":592,"x_min":60,"x_max":576,"o":"m 60 0 l 60 972 l 244 972 l 244 457 l 264 457 l 394 710 l 575 710 l 411 400 l 576 0 l 393 0 l 265 311 l 244 311 l 244 0 l 60 0 z "},"l":{"ha":303,"x_min":60,"x_max":243,"o":"m 243 972 l 243 0 l 60 0 l 60 972 l 243 972 z "},"m":{"ha":953,"x_min":60,"x_max":899,"o":"m 368 710 l 467 710 l 501 661 q 558 699 531 688 q 639 710 585 710 l 793 710 q 876 554 854 632 q 899 360 899 476 l 899 0 l 714 0 l 714 374 q 675 564 714 501 l 542 564 q 572 401 572 504 l 572 0 l 388 0 l 388 374 q 351 564 388 506 l 244 564 l 244 0 l 60 0 l 60 710 l 204 710 l 229 660 q 287 699 260 688 q 368 710 314 710 z "},"n":{"ha":675,"x_min":60,"x_max":621,"o":"m 368 710 l 515 710 q 599 554 576 632 q 621 360 621 476 l 621 0 l 436 0 l 436 374 q 400 564 436 506 l 244 564 l 244 0 l 60 0 l 60 710 l 204 710 l 229 660 q 287 699 260 688 q 368 710 314 710 z "},"o":{"ha":661,"x_min":40,"x_max":621,"o":"m 482 0 l 179 0 q 40 353 40 129 q 72 549 40 465 q 171 710 103 632 l 496 710 q 594 548 568 626 q 621 353 621 469 q 482 0 621 129 m 278 146 l 383 146 q 433 367 433 243 q 382 564 433 490 l 278 564 q 228 363 228 493 q 278 146 228 233 z "},"p":{"ha":658,"x_min":60,"x_max":618,"o":"m 60 710 l 208 710 l 229 660 q 287 699 260 688 q 368 710 314 710 l 493 710 q 585 563 551 653 q 618 364 618 472 q 479 0 618 132 l 361 0 q 244 39 288 0 l 244 -208 l 60 -208 l 60 710 m 244 146 l 378 146 q 429 358 429 233 q 376 564 429 483 l 244 564 l 244 146 z "},"q":{"ha":657,"x_min":40,"x_max":597,"o":"m 449 701 l 597 701 l 597 -208 l 413 -208 l 413 39 q 296 0 369 0 l 179 0 q 40 364 40 132 q 76 560 40 469 q 172 710 113 651 l 289 710 q 370 699 343 710 q 428 660 397 688 l 449 701 m 279 144 l 413 144 l 413 564 l 281 564 q 228 358 228 483 q 279 144 228 232 z "},"r":{"ha":442,"x_min":61,"x_max":422,"o":"m 61 0 l 61 710 l 193 710 l 228 635 q 368 710 283 710 l 422 710 l 422 524 l 246 524 l 246 0 l 61 0 z "},"s":{"ha":486,"x_min":28,"x_max":456,"o":"m 129 710 l 436 710 l 436 564 l 219 564 l 351 368 q 450 194 440 242 q 456 149 456 172 q 382 0 456 50 l 28 0 l 28 146 l 282 146 l 133 364 q 103 407 124 379 q 72 452 83 435 q 57 478 61 469 q 46 499 53 486 q 36 522 39 513 q 31 565 31 549 q 129 710 31 667 z "},"t":{"ha":433,"x_min":6,"x_max":400,"o":"m 101 310 l 101 564 l 6 564 l 6 710 l 101 710 l 101 903 l 286 903 l 286 710 l 400 710 l 400 564 l 286 564 l 286 265 q 315 146 286 181 l 400 146 l 400 0 l 203 0 q 114 147 129 68 q 101 310 101 214 z "},"u":{"ha":663,"x_min":54,"x_max":603,"o":"m 306 0 l 160 0 q 76 156 99 78 q 54 350 54 233 l 54 710 l 239 710 l 239 336 q 289 146 239 210 l 418 146 l 418 710 l 603 710 l 603 0 l 457 0 l 432 50 q 306 0 379 0 z "},"v":{"ha":657,"x_min":56,"x_max":601,"o":"m 457 0 l 200 0 q 94 143 133 54 q 56 340 56 232 l 56 710 l 240 710 l 240 346 q 286 146 240 224 l 371 146 q 417 344 417 228 l 417 710 l 601 710 l 601 347 q 563 146 601 238 q 457 0 524 54 z "},"w":{"ha":950,"x_min":56,"x_max":894,"o":"m 383 710 l 567 710 l 567 146 l 664 146 q 710 349 710 219 l 710 710 l 894 710 l 894 340 q 764 0 894 106 l 649 0 q 472 64 542 0 q 301 0 403 0 l 186 0 q 56 340 56 92 l 56 710 l 240 710 l 240 340 q 285 146 240 217 l 383 146 l 383 710 z "},"x":{"ha":585,"x_min":6,"x_max":579,"o":"m 294 446 l 381 710 l 574 710 l 442 364 l 579 0 l 389 0 l 293 275 l 288 275 l 196 0 l 6 0 l 143 364 l 11 710 l 201 710 l 289 446 l 294 446 z "},"y":{"ha":657,"x_min":49,"x_max":601,"o":"m 56 390 l 56 710 l 240 710 l 240 389 q 289 188 240 268 l 371 188 q 417 389 417 267 l 417 710 l 601 710 l 601 400 q 574 217 601 296 q 486 38 547 138 l 393 -114 q 340 -178 368 -157 q 268 -208 313 -199 l 49 -208 l 49 -62 l 199 -62 q 247 -33 228 -54 q 288 26 267 -12 l 296 42 l 200 42 q 94 188 133 96 q 56 390 56 281 z "},"z":{"ha":558,"x_min":33,"x_max":525,"o":"m 525 603 l 257 146 l 522 146 l 522 0 l 33 0 l 33 107 l 306 564 l 50 564 l 50 710 l 525 710 l 525 603 z "},"{":{"ha":344,"x_min":35,"x_max":331,"o":"m 193 458 l 193 447 q 267 238 290 385 l 243 93 q 238 -31 231 25 q 268 -108 244 -87 l 331 -108 l 331 -206 l 228 -206 q 64 69 28 -161 l 96 296 q 85 404 108 363 l 35 404 l 35 501 l 85 501 q 96 610 108 543 l 64 836 q 228 1111 28 1067 l 331 1111 l 331 1014 l 268 1014 q 238 937 244 993 q 243 813 231 881 l 267 668 q 193 458 290 521 z "},"|":{"ha":317,"x_min":69,"x_max":247,"o":"m 69 0 l 69 972 l 247 972 l 247 0 l 69 0 z "},"}":{"ha":344,"x_min":14,"x_max":310,"o":"m 151 447 l 151 458 q 78 668 54 521 l 101 813 q 107 937 114 881 q 76 1014 100 993 l 14 1014 l 14 1111 l 117 1111 q 281 836 317 1067 l 249 610 q 260 501 236 543 l 310 501 l 310 404 l 260 404 q 249 296 236 363 l 281 69 q 117 -206 317 -161 l 14 -206 l 14 -108 l 76 -108 q 107 -31 100 -87 q 101 93 114 25 l 78 238 q 151 447 54 385 z "},"~":{"ha":572,"x_min":14,"x_max":558,"o":"m 381 311 l 192 378 q 14 340 103 371 l 14 503 q 192 543 92 539 l 381 476 q 558 496 481 476 l 558 335 q 381 311 485 313 z "}," ":{"ha":222,"x_min":0,"x_max":0,"o":""},"¡":{"ha":308,"x_min":56,"x_max":253,"o":"m 232 522 l 76 522 l 76 710 l 232 710 l 232 522 m 76 182 l 56 -262 l 253 -262 l 232 182 l 232 375 l 76 375 l 76 182 z "},"¢":{"ha":557,"x_min":56,"x_max":524,"o":"m 247 504 q 265 385 247 446 q 315 289 283 325 l 524 289 l 524 143 l 439 143 l 439 0 l 292 0 l 292 143 l 219 143 q 56 504 56 274 q 231 853 56 735 l 292 853 l 292 972 l 439 972 l 439 853 l 524 853 l 524 707 l 315 707 q 247 504 247 636 z "},"£":{"ha":586,"x_min":38,"x_max":544,"o":"m 38 403 l 61 549 l 126 549 l 126 665 q 288 972 126 874 l 535 972 l 535 806 l 356 806 q 324 756 331 781 q 317 685 317 732 l 317 549 l 535 549 l 511 403 l 317 403 l 317 161 l 544 161 l 544 0 l 46 0 l 46 115 l 126 161 l 126 403 l 38 403 z "},"¥":{"ha":636,"x_min":11,"x_max":625,"o":"m 419 0 l 217 0 l 217 308 l 78 308 l 78 467 l 171 467 l 11 972 l 200 972 l 286 676 l 315 506 l 321 506 l 350 676 l 436 972 l 625 972 l 464 467 l 561 467 l 561 308 l 419 308 l 419 0 z "},"¦":{"ha":317,"x_min":69,"x_max":247,"o":"m 69 0 l 69 439 l 247 439 l 247 0 l 69 0 m 69 536 l 69 972 l 247 972 l 247 536 l 69 536 z "},"§":{"ha":567,"x_min":10,"x_max":532,"o":"m 328 100 q 401 -90 401 -22 q 268 -272 401 -217 l 36 -272 l 36 -114 l 240 -114 l 244 -107 l 125 126 q 86 200 117 143 q 44 281 56 257 q 10 415 10 361 q 28 506 10 468 q 64 560 46 543 q 115 600 82 578 l 213 600 q 146 790 146 725 q 279 972 146 917 l 511 972 l 511 806 l 307 806 l 303 799 l 431 544 q 456 500 436 535 l 481 453 q 532 281 532 354 q 432 100 532 169 l 328 100 m 163 458 l 157 446 l 261 242 l 381 242 l 386 254 l 282 458 l 163 458 z "},"¨":{"ha":694,"x_min":135,"x_max":558,"o":"m 135 785 l 135 972 l 318 972 l 318 785 l 135 785 m 375 785 l 375 972 l 558 972 l 558 785 l 375 785 z "},"©":{"ha":1069,"x_min":35,"x_max":1035,"o":"m 529 368 q 485 481 485 406 q 529 593 485 557 l 678 593 l 678 756 l 444 756 q 303 486 303 660 q 444 207 303 313 l 678 207 l 678 368 l 529 368 m 742 972 q 958 772 882 901 q 1035 485 1035 643 q 958 199 1035 328 q 742 0 882 71 l 328 0 q 111 199 188 71 q 35 485 35 328 q 111 772 35 643 q 328 972 188 901 l 742 972 m 683 142 q 824 283 778 186 q 869 485 869 379 q 824 687 869 592 q 683 829 778 782 l 386 829 q 246 687 292 782 q 200 485 200 592 q 246 283 200 379 q 386 142 292 186 l 683 142 z "},"ª":{"ha":504,"x_min":14,"x_max":490,"o":"m 318 417 l 306 499 l 197 499 l 185 417 l 14 417 l 106 972 l 397 972 l 490 417 l 318 417 m 257 824 l 246 824 l 214 622 l 290 622 l 257 824 z "},"«":{"ha":690,"x_min":49,"x_max":642,"o":"m 231 82 l 49 339 l 217 607 l 340 539 l 222 339 l 354 150 l 231 82 m 518 82 l 336 339 l 504 607 l 628 539 l 510 339 l 642 150 l 518 82 z "},"¬":{"ha":478,"x_min":7,"x_max":471,"o":"m 7 407 l 7 572 l 471 572 l 471 179 l 286 179 l 286 407 l 7 407 z "},"­":{"ha":411,"x_min":63,"x_max":349,"o":"m 63 321 l 63 479 l 349 479 l 349 321 l 63 321 z "},"®":{"ha":747,"x_min":35,"x_max":713,"o":"m 246 468 l 246 836 l 432 836 q 492 788 469 821 q 514 713 514 754 q 461 607 514 646 l 513 468 l 407 468 l 367 585 l 349 585 l 349 468 l 246 468 m 349 740 l 349 663 l 397 663 q 413 701 413 675 q 397 740 413 728 l 349 740 m 529 336 l 218 336 q 82 465 129 378 q 35 654 35 551 q 82 844 35 757 q 218 972 129 931 l 529 972 q 665 844 618 931 q 713 654 713 757 q 665 465 713 551 q 529 336 618 378 m 503 871 l 244 871 q 172 778 197 839 q 147 654 147 718 q 172 530 147 590 q 244 438 197 469 l 503 438 q 574 530 549 469 q 600 654 600 590 q 574 778 600 718 q 503 871 549 839 z "},"¯":{"ha":694,"x_min":172,"x_max":522,"o":"m 172 790 l 172 929 l 522 929 l 522 790 l 172 790 z "},"°":{"ha":438,"x_min":43,"x_max":396,"o":"m 154 1075 l 285 1075 q 396 894 396 1021 q 367 792 396 840 q 285 719 338 743 l 154 719 q 72 792 101 743 q 43 894 43 840 q 154 1075 43 1021 m 197 831 l 242 831 q 267 898 267 856 q 242 964 267 940 l 197 964 q 172 898 172 940 q 197 831 172 856 z "},"±":{"ha":478,"x_min":7,"x_max":471,"o":"m 471 0 l 471 135 l 7 135 l 7 0 l 471 0 m 7 403 l 7 538 l 471 538 l 471 403 l 7 403 m 171 232 l 171 710 l 304 710 l 304 232 l 171 232 z "},"´":{"ha":694,"x_min":203,"x_max":506,"o":"m 203 871 l 440 1010 l 506 867 l 258 758 l 203 871 z "},"¶":{"ha":643,"x_min":35,"x_max":592,"o":"m 346 208 l 261 208 q 95 362 156 258 q 35 578 35 465 q 261 972 35 840 l 592 972 l 592 160 q 550 -153 592 -15 l 367 -153 q 408 154 408 -1 l 408 775 l 346 775 l 346 208 z "},"·":{"ha":267,"x_min":56,"x_max":211,"o":"m 56 582 l 211 582 l 211 410 l 56 410 l 56 582 z "},"¸":{"ha":694,"x_min":242,"x_max":453,"o":"m 304 -183 l 269 -183 l 269 -83 l 315 21 l 432 21 l 392 -83 q 422 -114 413 -101 q 453 -203 453 -150 q 428 -296 453 -256 q 364 -361 403 -336 l 242 -361 l 242 -249 l 304 -249 q 317 -217 317 -240 q 304 -183 318 -193 z "},"º":{"ha":513,"x_min":28,"x_max":485,"o":"m 382 417 l 129 417 q 28 683 28 511 q 129 972 28 856 l 382 972 q 485 686 485 854 q 460 539 485 613 q 382 417 435 465 m 238 553 l 274 553 q 304 698 304 607 q 272 833 304 789 l 239 833 q 207 697 207 786 q 238 553 207 607 z "},"»":{"ha":675,"x_min":35,"x_max":626,"o":"m 626 339 l 444 82 l 321 150 l 453 339 l 335 539 l 458 607 l 626 339 m 340 339 l 158 82 l 35 150 l 167 339 l 49 539 l 172 607 l 340 339 z "},"¿":{"ha":429,"x_min":39,"x_max":388,"o":"m 336 522 l 167 522 l 167 710 l 336 710 l 336 522 m 336 375 l 336 313 q 275 39 336 192 q 248 -29 254 -12 q 242 -65 242 -46 q 268 -90 242 -90 l 388 -90 l 388 -262 l 156 -262 q 65 -185 92 -236 q 39 -94 39 -133 q 48 -23 39 -54 q 65 25 57 8 l 126 138 q 167 318 167 218 l 167 375 l 336 375 z "},"À":{"ha":681,"x_min":14,"x_max":667,"o":"m 481 0 l 451 154 l 232 154 l 203 0 l 14 0 l 201 972 l 489 972 l 667 0 l 481 0 m 339 792 l 285 468 l 254 303 l 428 303 l 396 468 l 342 792 l 339 792 m 236 1249 l 490 1135 l 446 1014 l 182 1094 l 236 1249 z "},"Á":{"ha":681,"x_min":14,"x_max":667,"o":"m 481 0 l 451 154 l 232 154 l 203 0 l 14 0 l 201 972 l 489 972 l 667 0 l 481 0 m 339 792 l 285 468 l 254 303 l 428 303 l 396 468 l 342 792 l 339 792 m 221 1135 l 475 1249 l 528 1094 l 265 1014 l 221 1135 z "},"Â":{"ha":681,"x_min":14,"x_max":667,"o":"m 481 0 l 451 154 l 232 154 l 203 0 l 14 0 l 201 972 l 489 972 l 667 0 l 481 0 m 339 792 l 285 468 l 254 303 l 428 303 l 396 468 l 342 792 l 339 792 m 268 1219 l 415 1219 l 542 1065 l 460 1011 l 340 1092 l 221 1013 l 139 1068 l 268 1219 z "},"Ã":{"ha":681,"x_min":14,"x_max":667,"o":"m 481 0 l 451 154 l 232 154 l 203 0 l 14 0 l 201 972 l 489 972 l 667 0 l 481 0 m 339 792 l 285 468 l 254 303 l 428 303 l 396 468 l 342 792 l 339 792 m 406 1019 l 272 1054 q 158 1022 243 1054 l 158 1168 q 278 1206 247 1206 l 413 1168 q 522 1188 440 1168 l 522 1039 q 406 1019 438 1018 z "},"Ä":{"ha":681,"x_min":14,"x_max":667,"o":"m 481 0 l 451 154 l 232 154 l 203 0 l 14 0 l 201 972 l 489 972 l 667 0 l 481 0 m 339 792 l 285 468 l 254 303 l 428 303 l 396 468 l 342 792 l 339 792 m 129 1014 l 129 1201 l 313 1201 l 313 1014 l 129 1014 m 369 1014 l 369 1201 l 553 1201 l 553 1014 l 369 1014 z "},"Å":{"ha":681,"x_min":14,"x_max":667,"o":"m 281 1239 l 406 1239 q 517 1065 517 1185 q 489 969 517 1013 l 667 0 l 481 0 l 451 154 l 232 154 l 203 0 l 14 0 l 200 964 q 169 1065 169 1008 q 281 1239 169 1185 m 339 792 l 285 468 l 254 303 l 428 303 l 396 468 l 342 792 l 339 792 m 317 999 l 368 999 q 397 1068 397 1028 q 368 1135 397 1108 l 317 1135 q 289 1067 289 1107 q 317 999 289 1026 z "},"Æ":{"ha":938,"x_min":7,"x_max":897,"o":"m 7 0 l 258 972 l 892 972 l 892 806 l 583 806 l 583 574 l 858 574 l 858 413 l 583 413 l 583 161 l 897 161 l 897 0 l 393 0 l 393 236 l 251 236 l 196 0 l 7 0 m 385 806 l 286 386 l 393 386 l 393 806 l 385 806 z "},"Ç":{"ha":615,"x_min":42,"x_max":581,"o":"m 311 -183 l 276 -183 l 276 -83 l 313 0 l 228 0 q 89 218 136 86 q 42 490 42 350 q 94 758 42 629 q 251 972 147 888 l 581 972 l 581 806 l 336 806 q 272 667 299 763 q 244 483 244 571 q 272 300 244 396 q 336 161 299 204 l 581 161 l 581 0 l 431 0 l 399 -83 q 429 -114 419 -101 q 460 -203 460 -150 q 435 -296 460 -256 q 371 -361 410 -336 l 249 -361 l 249 -249 l 311 -249 q 324 -217 324 -240 q 311 -183 325 -193 z "},"È":{"ha":611,"x_min":67,"x_max":571,"o":"m 67 972 l 67 0 l 571 0 l 571 161 l 257 161 l 257 413 l 532 413 l 532 574 l 257 574 l 257 806 l 565 806 l 565 972 l 67 972 m 221 1249 l 475 1135 l 431 1014 l 167 1094 l 221 1249 z "},"É":{"ha":611,"x_min":67,"x_max":571,"o":"m 67 972 l 67 0 l 571 0 l 571 161 l 257 161 l 257 413 l 532 413 l 532 574 l 257 574 l 257 806 l 565 806 l 565 972 l 67 972 m 178 1135 l 432 1249 l 485 1094 l 222 1014 l 178 1135 z "},"Ê":{"ha":611,"x_min":67,"x_max":571,"o":"m 67 972 l 67 0 l 571 0 l 571 161 l 257 161 l 257 413 l 532 413 l 532 574 l 257 574 l 257 806 l 565 806 l 565 972 l 67 972 m 247 1219 l 394 1219 l 521 1065 l 439 1011 l 319 1092 l 200 1013 l 118 1068 l 247 1219 z "},"Ë":{"ha":611,"x_min":67,"x_max":571,"o":"m 67 972 l 67 0 l 571 0 l 571 161 l 257 161 l 257 413 l 532 413 l 532 574 l 257 574 l 257 806 l 565 806 l 565 972 l 67 972 m 104 1014 l 104 1201 l 288 1201 l 288 1014 l 104 1014 m 344 1014 l 344 1201 l 528 1201 l 528 1014 l 344 1014 z "},"Ì":{"ha":324,"x_min":-37,"x_max":271,"o":"m 67 972 l 67 0 l 257 0 l 257 972 l 67 972 m 17 1249 l 271 1135 l 226 1014 l -37 1094 l 17 1249 z "},"Í":{"ha":324,"x_min":42,"x_max":349,"o":"m 67 972 l 67 0 l 257 0 l 257 972 l 67 972 m 42 1135 l 296 1249 l 349 1094 l 86 1014 l 42 1135 z "},"Î":{"ha":324,"x_min":-40,"x_max":363,"o":"m 67 972 l 67 0 l 257 0 l 257 972 l 67 972 m 89 1219 l 236 1219 l 363 1065 l 281 1011 l 161 1092 l 42 1013 l -40 1068 l 89 1219 z "},"Ï":{"ha":324,"x_min":-50,"x_max":374,"o":"m 67 972 l 67 0 l 257 0 l 257 972 l 67 972 m -50 1014 l -50 1201 l 133 1201 l 133 1014 l -50 1014 m 190 1014 l 190 1201 l 374 1201 l 374 1014 l 190 1014 z "},"Ð":{"ha":725,"x_min":18,"x_max":683,"o":"m 18 415 l 18 563 l 83 563 l 83 972 l 486 972 q 683 498 683 797 q 499 0 683 199 l 83 0 l 83 415 l 18 415 m 272 161 l 397 161 q 459 303 436 210 q 482 488 482 396 q 400 806 482 706 l 272 806 l 272 563 l 393 563 l 393 415 l 272 415 l 272 161 z "},"Ñ":{"ha":696,"x_min":67,"x_max":629,"o":"m 500 0 l 240 538 l 233 535 l 242 371 l 242 0 l 67 0 l 67 972 l 207 972 l 463 414 l 469 417 l 454 588 l 454 972 l 629 972 l 629 0 l 500 0 m 406 1019 l 272 1054 q 158 1022 243 1054 l 158 1168 q 278 1206 247 1206 l 413 1168 q 522 1188 440 1168 l 522 1039 q 406 1019 438 1018 z "},"Ò":{"ha":753,"x_min":42,"x_max":711,"o":"m 244 1249 l 499 1135 l 454 1014 l 190 1094 l 244 1249 m 519 972 q 664 760 617 893 q 711 485 711 626 q 665 218 711 344 q 519 0 619 92 l 233 0 q 88 218 133 92 q 42 485 42 344 q 89 760 42 626 q 233 972 136 893 l 519 972 m 326 161 l 426 161 q 485 292 461 201 q 510 485 510 383 q 486 676 510 586 q 428 806 463 765 l 326 806 q 267 676 292 765 q 243 485 243 586 q 267 292 243 383 q 326 161 292 201 z "},"Ó":{"ha":753,"x_min":42,"x_max":711,"o":"m 243 1135 l 497 1249 l 550 1094 l 288 1014 l 243 1135 m 519 972 q 664 760 617 893 q 711 485 711 626 q 665 218 711 344 q 519 0 619 92 l 233 0 q 88 218 133 92 q 42 485 42 344 q 89 760 42 626 q 233 972 136 893 l 519 972 m 326 161 l 426 161 q 485 292 461 201 q 510 485 510 383 q 486 676 510 586 q 428 806 463 765 l 326 806 q 267 676 292 765 q 243 485 243 586 q 267 292 243 383 q 326 161 292 201 z "},"Ô":{"ha":753,"x_min":42,"x_max":711,"o":"m 304 1219 l 451 1219 l 578 1065 l 496 1011 l 376 1092 l 257 1013 l 175 1068 l 304 1219 m 519 972 q 664 760 617 893 q 711 485 711 626 q 665 218 711 344 q 519 0 619 92 l 233 0 q 88 218 133 92 q 42 485 42 344 q 89 760 42 626 q 233 972 136 893 l 519 972 m 326 161 l 426 161 q 485 292 461 201 q 510 485 510 383 q 486 676 510 586 q 428 806 463 765 l 326 806 q 267 676 292 765 q 243 485 243 586 q 267 292 243 383 q 326 161 292 201 z "},"Õ":{"ha":753,"x_min":42,"x_max":711,"o":"m 442 1019 l 308 1054 q 194 1022 279 1054 l 194 1168 q 314 1206 283 1206 l 449 1168 q 558 1188 476 1168 l 558 1039 q 442 1019 474 1018 m 519 972 q 664 760 617 893 q 711 485 711 626 q 665 218 711 344 q 519 0 619 92 l 233 0 q 88 218 133 92 q 42 485 42 344 q 89 760 42 626 q 233 972 136 893 l 519 972 m 326 161 l 426 161 q 485 292 461 201 q 510 485 510 383 q 486 676 510 586 q 428 806 463 765 l 326 806 q 267 676 292 765 q 243 485 243 586 q 267 292 243 383 q 326 161 292 201 z "},"Ö":{"ha":753,"x_min":42,"x_max":711,"o":"m 165 1014 l 165 1201 l 349 1201 l 349 1014 l 165 1014 m 406 1014 l 406 1201 l 589 1201 l 589 1014 l 406 1014 m 519 972 q 664 760 617 893 q 711 485 711 626 q 665 218 711 344 q 519 0 619 92 l 233 0 q 88 218 133 92 q 42 485 42 344 q 89 760 42 626 q 233 972 136 893 l 519 972 m 326 161 l 426 161 q 485 292 461 201 q 510 485 510 383 q 486 676 510 586 q 428 806 463 765 l 326 806 q 267 676 292 765 q 243 485 243 586 q 267 292 243 383 q 326 161 292 201 z "},"×":{"ha":446,"x_min":7,"x_max":439,"o":"m 108 258 l 13 354 l 340 682 l 436 586 l 108 258 m 344 254 l 7 592 l 101 686 l 439 349 l 344 254 z "},"Ø":{"ha":753,"x_min":42,"x_max":711,"o":"m 138 -69 l 179 57 q 42 472 42 228 q 89 760 42 626 q 233 972 136 893 l 433 972 l 457 1042 l 628 1042 l 583 907 q 711 472 711 743 q 665 218 711 344 q 519 0 619 92 l 331 0 l 308 -69 l 138 -69 m 326 161 l 426 161 q 485 292 461 201 q 510 485 510 383 q 486 676 510 586 q 428 806 463 765 l 326 806 q 267 676 292 765 q 243 485 243 586 q 267 292 243 383 q 326 161 292 201 z "},"Ù":{"ha":731,"x_min":60,"x_max":671,"o":"m 307 161 l 424 161 q 467 228 454 194 q 481 329 481 263 l 481 972 l 671 972 l 671 399 q 667 288 671 328 q 650 192 664 249 q 519 0 626 90 l 211 0 q 81 192 104 88 q 60 399 60 276 l 60 972 l 250 972 l 250 329 q 263 228 250 263 q 307 161 276 194 m 261 1249 l 515 1135 l 471 1014 l 207 1094 l 261 1249 z "},"Ú":{"ha":731,"x_min":60,"x_max":671,"o":"m 307 161 l 424 161 q 467 228 454 194 q 481 329 481 263 l 481 972 l 671 972 l 671 399 q 667 288 671 328 q 650 192 664 249 q 519 0 626 90 l 211 0 q 81 192 104 88 q 60 399 60 276 l 60 972 l 250 972 l 250 329 q 263 228 250 263 q 307 161 276 194 m 246 1135 l 500 1249 l 553 1094 l 290 1014 l 246 1135 z "},"Û":{"ha":731,"x_min":60,"x_max":671,"o":"m 307 161 l 424 161 q 467 228 454 194 q 481 329 481 263 l 481 972 l 671 972 l 671 399 q 667 288 671 328 q 650 192 664 249 q 519 0 626 90 l 211 0 q 81 192 104 88 q 60 399 60 276 l 60 972 l 250 972 l 250 329 q 263 228 250 263 q 307 161 276 194 m 293 1219 l 440 1219 l 567 1065 l 485 1011 l 365 1092 l 246 1013 l 164 1068 l 293 1219 z "},"Ü":{"ha":731,"x_min":60,"x_max":671,"o":"m 307 161 l 424 161 q 467 228 454 194 q 481 329 481 263 l 481 972 l 671 972 l 671 399 q 667 288 671 328 q 650 192 664 249 q 519 0 626 90 l 211 0 q 81 192 104 88 q 60 399 60 276 l 60 972 l 250 972 l 250 329 q 263 228 250 263 q 307 161 276 194 m 154 1014 l 154 1201 l 338 1201 l 338 1014 l 154 1014 m 394 1014 l 394 1201 l 578 1201 l 578 1014 l 394 1014 z "},"Ý":{"ha":614,"x_min":0,"x_max":614,"o":"m 408 0 l 206 0 l 206 324 l 0 972 l 189 972 l 275 676 l 304 506 l 310 506 l 339 676 l 425 972 l 614 972 l 408 324 l 408 0 m 203 1135 l 457 1249 l 510 1094 l 247 1014 l 203 1135 z "},"Þ":{"ha":682,"x_min":67,"x_max":647,"o":"m 67 0 l 67 972 l 254 972 l 254 847 l 443 847 q 592 719 538 806 q 647 519 647 633 q 590 307 647 404 q 422 169 533 210 l 254 169 l 254 0 l 67 0 m 254 678 l 254 332 l 378 332 q 454 511 454 394 q 433 610 454 563 q 386 678 413 657 l 254 678 z "},"ß":{"ha":706,"x_min":46,"x_max":706,"o":"m 518 275 q 463 406 518 375 l 353 406 l 353 618 q 314 826 353 753 l 268 826 q 231 618 231 751 l 231 0 l 46 0 l 46 574 q 73 808 46 714 q 192 972 100 903 l 392 972 q 517 783 493 888 q 536 574 536 694 l 536 549 q 706 274 706 493 q 663 121 706 201 q 544 0 621 40 l 299 0 l 299 146 l 463 146 q 501 197 485 161 q 518 275 518 232 z "},"à":{"ha":636,"x_min":40,"x_max":582,"o":"m 394 321 l 246 321 q 217 231 217 285 q 247 146 217 176 l 394 146 l 394 321 m 96 710 l 440 710 q 550 595 524 660 q 576 419 576 531 l 576 211 q 582 0 576 96 l 424 0 l 399 50 q 246 0 344 0 l 158 0 q 40 224 40 78 q 161 456 40 371 l 292 456 q 393 422 346 456 l 393 492 q 346 564 393 546 l 96 564 l 96 710 m 200 1010 l 438 871 l 382 758 l 135 867 l 200 1010 z "},"á":{"ha":636,"x_min":40,"x_max":582,"o":"m 394 321 l 246 321 q 217 231 217 285 q 247 146 217 176 l 394 146 l 394 321 m 96 710 l 440 710 q 550 595 524 660 q 576 419 576 531 l 576 211 q 582 0 576 96 l 424 0 l 399 50 q 246 0 344 0 l 158 0 q 40 224 40 78 q 161 456 40 371 l 292 456 q 393 422 346 456 l 393 492 q 346 564 393 546 l 96 564 l 96 710 m 175 871 l 413 1010 l 478 867 l 231 758 l 175 871 z "},"â":{"ha":636,"x_min":40,"x_max":582,"o":"m 394 321 l 246 321 q 217 231 217 285 q 247 146 217 176 l 394 146 l 394 321 m 96 710 l 440 710 q 550 595 524 660 q 576 419 576 531 l 576 211 q 582 0 576 96 l 424 0 l 399 50 q 246 0 344 0 l 158 0 q 40 224 40 78 q 161 456 40 371 l 292 456 q 393 422 346 456 l 393 492 q 346 564 393 546 l 96 564 l 96 710 m 224 997 l 388 997 l 500 808 l 411 763 l 306 869 l 200 763 l 113 808 l 224 997 z "},"ã":{"ha":636,"x_min":40,"x_max":582,"o":"m 394 321 l 246 321 q 217 231 217 285 q 247 146 217 176 l 394 146 l 394 321 m 96 710 l 440 710 q 550 595 524 660 q 576 419 576 531 l 576 211 q 582 0 576 96 l 424 0 l 399 50 q 246 0 344 0 l 158 0 q 40 224 40 78 q 161 456 40 371 l 292 456 q 393 422 346 456 l 393 492 q 346 564 393 546 l 96 564 l 96 710 m 371 774 l 238 808 q 124 776 208 808 l 124 915 q 243 953 213 953 l 378 915 q 488 935 406 915 l 488 793 q 371 774 403 772 z "},"ä":{"ha":636,"x_min":40,"x_max":582,"o":"m 394 321 l 246 321 q 217 231 217 285 q 247 146 217 176 l 394 146 l 394 321 m 96 710 l 440 710 q 550 595 524 660 q 576 419 576 531 l 576 211 q 582 0 576 96 l 424 0 l 399 50 q 246 0 344 0 l 158 0 q 40 224 40 78 q 161 456 40 371 l 292 456 q 393 422 346 456 l 393 492 q 346 564 393 546 l 96 564 l 96 710 m 94 785 l 94 972 l 278 972 l 278 785 l 94 785 m 335 785 l 335 972 l 518 972 l 518 785 l 335 785 z "},"å":{"ha":636,"x_min":40,"x_max":582,"o":"m 394 321 l 246 321 q 217 231 217 285 q 247 146 217 176 l 394 146 l 394 321 m 96 710 l 440 710 q 550 595 524 660 q 576 419 576 531 l 576 211 q 582 0 576 96 l 424 0 l 399 50 q 246 0 344 0 l 158 0 q 40 224 40 78 q 161 456 40 371 l 292 456 q 393 422 346 456 l 393 492 q 346 564 393 546 l 96 564 l 96 710 m 243 1103 l 368 1103 q 479 929 479 1049 q 450 831 479 876 q 368 761 421 786 l 243 761 q 161 831 190 786 q 132 929 132 876 q 243 1103 132 1049 m 279 863 l 331 863 q 360 932 360 892 q 331 999 360 972 l 279 999 q 251 931 251 971 q 279 863 251 890 z "},"æ":{"ha":983,"x_min":40,"x_max":950,"o":"m 922 144 l 922 0 l 569 0 q 506 54 542 18 q 357 0 444 0 l 158 0 q 40 224 40 78 q 161 456 40 371 l 292 456 q 393 422 346 456 l 393 492 q 346 564 393 546 l 96 564 l 96 710 l 428 710 q 503 649 474 690 q 572 710 525 674 l 790 710 q 917 565 883 642 q 950 411 950 489 q 938 278 950 333 l 592 278 q 616 204 596 246 q 660 144 636 163 l 922 144 m 394 321 l 246 321 q 217 231 217 285 q 247 146 217 176 l 440 146 q 394 321 399 228 m 733 564 l 629 564 q 595 494 608 539 q 582 408 582 450 l 781 408 q 767 494 781 446 q 733 564 754 542 z "},"ç":{"ha":542,"x_min":40,"x_max":508,"o":"m 286 -183 l 251 -183 l 251 -83 l 288 0 l 204 0 q 40 361 40 131 q 215 710 40 592 l 508 710 l 508 564 l 300 564 q 232 361 232 493 q 250 242 232 303 q 300 146 268 182 l 508 146 l 508 0 l 406 0 l 374 -83 q 404 -114 394 -101 q 435 -203 435 -150 q 410 -296 435 -256 q 346 -361 385 -336 l 224 -361 l 224 -249 l 286 -249 q 299 -217 299 -240 q 286 -183 300 -193 z "},"è":{"ha":631,"x_min":40,"x_max":597,"o":"m 381 564 l 276 564 q 242 494 256 539 q 229 408 229 450 l 428 408 q 417 495 431 450 q 381 564 403 540 m 569 146 l 569 0 l 217 0 q 80 162 119 65 q 40 357 40 258 q 213 710 40 585 l 438 710 q 564 565 531 642 q 597 411 597 489 q 585 278 597 333 l 239 278 q 263 205 243 246 q 307 146 283 164 l 569 146 m 204 1010 l 442 871 l 386 758 l 139 867 l 204 1010 z "},"é":{"ha":631,"x_min":40,"x_max":597,"o":"m 381 564 l 276 564 q 242 494 256 539 q 229 408 229 450 l 428 408 q 417 495 431 450 q 381 564 403 540 m 569 146 l 569 0 l 217 0 q 80 162 119 65 q 40 357 40 258 q 213 710 40 585 l 438 710 q 564 565 531 642 q 597 411 597 489 q 585 278 597 333 l 239 278 q 263 205 243 246 q 307 146 283 164 l 569 146 m 207 871 l 444 1010 l 510 867 l 263 758 l 207 871 z "},"ê":{"ha":631,"x_min":40,"x_max":597,"o":"m 381 564 l 276 564 q 242 494 256 539 q 229 408 229 450 l 428 408 q 417 495 431 450 q 381 564 403 540 m 569 146 l 569 0 l 217 0 q 80 162 119 65 q 40 357 40 258 q 213 710 40 585 l 438 710 q 564 565 531 642 q 597 411 597 489 q 585 278 597 333 l 239 278 q 263 205 243 246 q 307 146 283 164 l 569 146 m 242 997 l 406 997 l 518 808 l 429 763 l 324 869 l 218 763 l 131 808 l 242 997 z "},"ë":{"ha":631,"x_min":40,"x_max":597,"o":"m 381 564 l 276 564 q 242 494 256 539 q 229 408 229 450 l 428 408 q 417 495 431 450 q 381 564 403 540 m 569 146 l 569 0 l 217 0 q 80 162 119 65 q 40 357 40 258 q 213 710 40 585 l 438 710 q 564 565 531 642 q 597 411 597 489 q 585 278 597 333 l 239 278 q 263 205 243 246 q 307 146 283 164 l 569 146 m 113 785 l 113 972 l 296 972 l 296 785 l 113 785 m 353 785 l 353 972 l 536 972 l 536 785 l 353 785 z "},"ì":{"ha":303,"x_min":-56,"x_max":247,"o":"m 60 0 l 60 710 l 243 710 l 243 0 l 60 0 m 10 1010 l 247 871 l 192 758 l -56 867 l 10 1010 z "},"í":{"ha":303,"x_min":11,"x_max":314,"o":"m 60 710 l 60 0 l 243 0 l 243 710 l 60 710 m 11 871 l 249 1010 l 314 867 l 67 758 l 11 871 z "},"î":{"ha":303,"x_min":-42,"x_max":346,"o":"m 60 0 l 60 710 l 243 710 l 243 0 l 60 0 m 69 997 l 233 997 l 346 808 l 257 763 l 151 869 l 46 763 l -42 808 l 69 997 z "},"ï":{"ha":303,"x_min":-71,"x_max":353,"o":"m 60 710 l 60 0 l 243 0 l 243 710 l 60 710 m -71 785 l -71 972 l 113 972 l 113 785 l -71 785 m 169 785 l 169 972 l 353 972 l 353 785 l 169 785 z "},"ð":{"ha":656,"x_min":40,"x_max":624,"o":"m 217 771 l 217 893 l 318 893 q 298 929 313 901 q 275 972 283 957 l 450 972 l 490 893 l 624 893 l 624 771 l 546 771 q 618 422 618 593 q 582 160 618 251 q 482 0 546 69 l 172 0 q 76 153 111 58 q 40 365 40 247 q 76 564 40 482 q 176 710 111 646 l 296 710 q 413 668 363 710 q 374 771 396 719 l 217 771 m 422 564 l 279 564 q 228 349 228 476 q 278 146 228 222 l 388 146 q 433 413 433 250 q 422 564 433 500 z "},"ñ":{"ha":675,"x_min":60,"x_max":621,"o":"m 368 710 l 515 710 q 599 554 576 632 q 621 360 621 476 l 621 0 l 436 0 l 436 374 q 400 564 436 506 l 244 564 l 244 0 l 60 0 l 60 710 l 204 710 l 229 660 q 287 699 260 688 q 368 710 314 710 m 379 774 l 246 808 q 132 776 217 808 l 132 915 q 251 953 221 953 l 386 915 q 496 935 414 915 l 496 793 q 379 774 411 772 z "},"ò":{"ha":661,"x_min":40,"x_max":621,"o":"m 482 0 l 179 0 q 40 353 40 129 q 72 549 40 465 q 171 710 103 632 l 496 710 q 594 548 568 626 q 621 353 621 469 q 482 0 621 129 m 278 146 l 383 146 q 433 367 433 243 q 382 564 433 490 l 278 564 q 228 363 228 493 q 278 146 228 233 m 233 1010 l 471 871 l 415 758 l 168 867 l 233 1010 z "},"ó":{"ha":661,"x_min":40,"x_max":621,"o":"m 482 0 l 179 0 q 40 353 40 129 q 72 549 40 465 q 171 710 103 632 l 496 710 q 594 548 568 626 q 621 353 621 469 q 482 0 621 129 m 278 146 l 383 146 q 433 367 433 243 q 382 564 433 490 l 278 564 q 228 363 228 493 q 278 146 228 233 m 194 871 l 432 1010 l 497 867 l 250 758 l 194 871 z "},"ô":{"ha":661,"x_min":40,"x_max":621,"o":"m 482 0 l 179 0 q 40 353 40 129 q 72 549 40 465 q 171 710 103 632 l 496 710 q 594 548 568 626 q 621 353 621 469 q 482 0 621 129 m 278 146 l 383 146 q 433 367 433 243 q 382 564 433 490 l 278 564 q 228 363 228 493 q 278 146 228 233 m 243 997 l 407 997 l 519 808 l 431 763 l 325 869 l 219 763 l 132 808 l 243 997 z "},"õ":{"ha":661,"x_min":40,"x_max":621,"o":"m 482 0 l 179 0 q 40 353 40 129 q 72 549 40 465 q 171 710 103 632 l 496 710 q 594 548 568 626 q 621 353 621 469 q 482 0 621 129 m 278 146 l 383 146 q 433 367 433 243 q 382 564 433 490 l 278 564 q 228 363 228 493 q 278 146 228 233 m 390 774 l 257 808 q 143 776 228 808 l 143 915 q 263 953 232 953 l 397 915 q 507 935 425 915 l 507 793 q 390 774 422 772 z "},"ö":{"ha":661,"x_min":40,"x_max":621,"o":"m 179 0 l 482 0 q 621 353 621 129 q 594 548 621 469 q 496 710 568 626 l 171 710 q 72 549 103 632 q 40 353 40 465 q 179 0 40 129 m 383 146 l 278 146 q 228 363 228 233 q 278 564 228 493 l 382 564 q 433 367 433 490 q 383 146 433 243 m 114 785 l 114 972 l 297 972 l 297 785 l 114 785 m 354 785 l 354 972 l 538 972 l 538 785 l 354 785 z "},"÷":{"ha":478,"x_min":7,"x_max":471,"o":"m 197 792 l 281 792 q 346 682 346 758 q 328 624 346 656 q 281 578 310 592 l 197 578 q 150 623 168 592 q 132 682 132 654 q 197 792 132 760 m 197 360 l 281 360 q 346 250 346 328 q 328 192 346 224 q 281 146 310 160 l 197 146 q 150 191 168 160 q 132 250 132 222 q 197 360 132 328 m 471 401 l 471 536 l 7 536 l 7 401 l 471 401 z "},"ø":{"ha":661,"x_min":40,"x_max":621,"o":"m 371 710 l 406 810 l 576 810 l 529 669 q 601 527 581 599 q 621 353 621 456 q 482 0 621 129 l 294 0 l 260 -107 l 89 -107 l 139 43 q 40 353 40 167 q 72 549 40 465 q 171 710 103 632 l 371 710 m 278 146 l 383 146 q 433 367 433 243 q 382 564 433 490 l 278 564 q 228 363 228 493 q 278 146 228 233 z "},"ù":{"ha":663,"x_min":54,"x_max":603,"o":"m 306 0 l 160 0 q 76 156 99 78 q 54 350 54 233 l 54 710 l 239 710 l 239 336 q 289 146 239 210 l 418 146 l 418 710 l 603 710 l 603 0 l 457 0 l 432 50 q 306 0 379 0 m 206 1010 l 443 871 l 388 758 l 140 867 l 206 1010 z "},"ú":{"ha":663,"x_min":54,"x_max":603,"o":"m 306 0 l 160 0 q 76 156 99 78 q 54 350 54 233 l 54 710 l 239 710 l 239 336 q 289 146 239 210 l 418 146 l 418 710 l 603 710 l 603 0 l 457 0 l 432 50 q 306 0 379 0 m 225 871 l 463 1010 l 528 867 l 281 758 l 225 871 z "},"û":{"ha":663,"x_min":54,"x_max":603,"o":"m 306 0 l 160 0 q 76 156 99 78 q 54 350 54 233 l 54 710 l 239 710 l 239 336 q 289 146 239 210 l 418 146 l 418 710 l 603 710 l 603 0 l 457 0 l 432 50 q 306 0 379 0 m 243 997 l 407 997 l 519 808 l 431 763 l 325 869 l 219 763 l 132 808 l 243 997 z "},"ü":{"ha":663,"x_min":54,"x_max":603,"o":"m 306 0 l 160 0 q 76 156 99 78 q 54 350 54 233 l 54 710 l 239 710 l 239 336 q 289 146 239 210 l 418 146 l 418 710 l 603 710 l 603 0 l 457 0 l 432 50 q 306 0 379 0 m 114 785 l 114 972 l 297 972 l 297 785 l 114 785 m 354 785 l 354 972 l 538 972 l 538 785 l 354 785 z "},"ý":{"ha":657,"x_min":49,"x_max":601,"o":"m 56 390 l 56 710 l 240 710 l 240 389 q 289 188 240 268 l 371 188 q 417 389 417 267 l 417 710 l 601 710 l 601 400 q 574 217 601 296 q 486 38 547 138 l 393 -114 q 340 -178 368 -157 q 268 -208 313 -199 l 49 -208 l 49 -62 l 199 -62 q 247 -33 228 -54 q 288 26 267 -12 l 296 42 l 200 42 q 94 188 133 96 q 56 390 56 281 m 229 871 l 467 1010 l 532 867 l 285 758 l 229 871 z "},"þ":{"ha":658,"x_min":60,"x_max":618,"o":"m 60 972 l 242 972 l 242 674 q 368 710 286 710 l 493 710 q 618 360 618 588 q 479 0 618 132 l 361 0 q 242 39 285 0 l 242 -208 l 60 -208 l 60 972 m 242 146 l 378 146 q 429 358 429 233 q 376 564 429 483 l 242 564 l 242 146 z "},"ÿ":{"ha":657,"x_min":49,"x_max":601,"o":"m 56 390 l 56 710 l 240 710 l 240 389 q 289 188 240 268 l 371 188 q 417 389 417 267 l 417 710 l 601 710 l 601 400 q 574 217 601 296 q 486 38 547 138 l 393 -114 q 340 -178 368 -157 q 268 -208 313 -199 l 49 -208 l 49 -62 l 199 -62 q 247 -33 228 -54 q 288 26 267 -12 l 296 42 l 200 42 q 94 188 133 96 q 56 390 56 281 m 111 785 l 111 972 l 294 972 l 294 785 l 111 785 m 351 785 l 351 972 l 535 972 l 535 785 l 351 785 z "},"Ā":{"ha":681,"x_min":14,"x_max":667,"o":"m 481 0 l 451 154 l 232 154 l 203 0 l 14 0 l 201 972 l 489 972 l 667 0 l 481 0 m 339 792 l 285 468 l 254 303 l 428 303 l 396 468 l 342 792 l 339 792 m 165 1025 l 165 1164 l 515 1164 l 515 1025 l 165 1025 z "},"ā":{"ha":636,"x_min":40,"x_max":582,"o":"m 394 321 l 246 321 q 217 231 217 285 q 247 146 217 176 l 394 146 l 394 321 m 96 710 l 440 710 q 550 595 524 660 q 576 419 576 531 l 576 211 q 582 0 576 96 l 424 0 l 399 50 q 246 0 344 0 l 158 0 q 40 224 40 78 q 161 456 40 371 l 292 456 q 393 422 346 456 l 393 492 q 346 564 393 546 l 96 564 l 96 710 m 117 790 l 117 929 l 467 929 l 467 790 l 117 790 z "},"Ă":{"ha":681,"x_min":14,"x_max":667,"o":"m 481 0 l 451 154 l 232 154 l 203 0 l 14 0 l 201 972 l 489 972 l 667 0 l 481 0 m 339 792 l 285 468 l 254 303 l 428 303 l 396 468 l 342 792 l 339 792 m 136 1221 l 264 1221 q 314 1149 278 1167 l 368 1149 q 418 1221 404 1167 l 547 1221 q 401 1014 542 1071 l 282 1014 q 136 1221 144 1069 z "},"ă":{"ha":636,"x_min":40,"x_max":582,"o":"m 394 321 l 246 321 q 217 231 217 285 q 247 146 217 176 l 394 146 l 394 321 m 96 710 l 440 710 q 550 595 524 660 q 576 419 576 531 l 576 211 q 582 0 576 96 l 424 0 l 399 50 q 246 0 344 0 l 158 0 q 40 224 40 78 q 161 456 40 371 l 292 456 q 393 422 346 456 l 393 492 q 346 564 393 546 l 96 564 l 96 710 m 85 982 l 215 982 q 236 911 225 924 q 258 893 247 899 l 325 893 q 356 926 349 906 q 368 982 364 956 l 499 982 q 353 761 489 817 l 231 761 q 85 982 94 817 z "},"Ą":{"ha":681,"x_min":14,"x_max":667,"o":"m 481 0 l 451 154 l 232 154 l 203 0 l 14 0 l 201 972 l 489 972 l 667 0 l 579 -143 q 571 -167 571 -157 q 585 -176 571 -176 l 654 -176 l 654 -315 l 456 -315 q 404 -219 404 -283 q 474 -56 404 -156 l 510 0 l 481 0 m 339 792 l 285 468 l 254 303 l 428 303 l 396 468 l 342 792 l 339 792 z "},"ą":{"ha":636,"x_min":40,"x_max":583,"o":"m 96 710 l 440 710 q 550 595 524 660 q 576 419 576 531 l 576 211 q 582 0 576 96 l 506 -143 q 497 -167 497 -157 q 511 -176 497 -176 l 583 -176 l 583 -315 l 371 -315 q 319 -221 319 -283 q 336 -147 319 -181 l 356 -107 q 386 -56 361 -97 l 421 4 l 399 50 q 246 0 344 0 l 158 0 q 40 224 40 78 q 161 456 40 371 l 292 456 q 393 422 346 456 l 393 492 q 346 564 393 546 l 96 564 l 96 710 m 394 321 l 246 321 q 217 231 217 285 q 247 146 217 176 l 394 146 l 394 321 z "},"Ć":{"ha":615,"x_min":42,"x_max":583,"o":"m 336 161 l 581 161 l 581 0 l 228 0 q 89 218 136 86 q 42 490 42 350 q 94 758 42 629 q 251 972 147 888 l 581 972 l 581 806 l 336 806 q 272 667 299 763 q 244 483 244 571 q 272 300 244 396 q 336 161 299 204 m 276 1135 l 531 1249 l 583 1094 l 321 1014 l 276 1135 z "},"ć":{"ha":542,"x_min":40,"x_max":519,"o":"m 232 361 q 250 242 232 303 q 300 146 268 182 l 508 146 l 508 0 l 204 0 q 40 361 40 131 q 215 710 40 592 l 508 710 l 508 564 l 300 564 q 232 361 232 493 m 217 871 l 454 1010 l 519 867 l 272 758 l 217 871 z "},"Ĉ":{"ha":615,"x_min":42,"x_max":585,"o":"m 336 161 l 581 161 l 581 0 l 228 0 q 89 218 136 86 q 42 490 42 350 q 94 758 42 629 q 251 972 147 888 l 581 972 l 581 806 l 336 806 q 272 667 299 763 q 244 483 244 571 q 272 300 244 396 q 336 161 299 204 m 311 1219 l 458 1219 l 585 1065 l 503 1011 l 383 1092 l 264 1013 l 182 1068 l 311 1219 z "},"ĉ":{"ha":542,"x_min":40,"x_max":542,"o":"m 232 361 q 250 242 232 303 q 300 146 268 182 l 508 146 l 508 0 l 204 0 q 40 361 40 131 q 215 710 40 592 l 508 710 l 508 564 l 300 564 q 232 361 232 493 m 265 997 l 429 997 l 542 808 l 453 763 l 347 869 l 242 763 l 154 808 l 265 997 z "},"Ċ":{"ha":615,"x_min":42,"x_max":581,"o":"m 336 161 l 581 161 l 581 0 l 228 0 q 89 218 136 86 q 42 490 42 350 q 94 758 42 629 q 251 972 147 888 l 581 972 l 581 806 l 336 806 q 272 667 299 763 q 244 483 244 571 q 272 300 244 396 q 336 161 299 204 m 324 1201 l 507 1201 l 507 1014 l 324 1014 l 324 1201 z "},"ċ":{"ha":542,"x_min":40,"x_max":508,"o":"m 232 361 q 300 564 232 493 l 508 564 l 508 710 l 215 710 q 40 361 40 592 q 204 0 40 131 l 508 0 l 508 146 l 300 146 q 250 242 268 182 q 232 361 232 303 m 265 972 l 449 972 l 449 785 l 265 785 l 265 972 z "},"Č":{"ha":615,"x_min":42,"x_max":599,"o":"m 336 161 l 581 161 l 581 0 l 228 0 q 89 218 136 86 q 42 490 42 350 q 94 758 42 629 q 251 972 147 888 l 581 972 l 581 806 l 336 806 q 272 667 299 763 q 244 483 244 571 q 272 300 244 396 q 336 161 299 204 m 472 1011 l 325 1011 l 196 1163 l 278 1218 l 397 1139 l 517 1219 l 599 1165 l 472 1011 z "},"č":{"ha":542,"x_min":40,"x_max":543,"o":"m 232 361 q 300 564 232 493 l 508 564 l 508 710 l 215 710 q 40 361 40 592 q 204 0 40 131 l 508 0 l 508 146 l 300 146 q 250 242 268 182 q 232 361 232 303 m 431 763 l 267 763 l 156 951 l 243 997 l 349 890 l 454 997 l 543 951 l 431 763 z "},"Ď":{"ha":708,"x_min":67,"x_max":667,"o":"m 381 161 l 256 161 l 256 806 l 383 806 q 465 488 465 706 q 442 303 465 396 q 381 161 419 210 m 67 972 l 67 0 l 482 0 q 667 498 667 199 q 469 972 667 797 l 67 972 m 379 1011 l 232 1011 l 103 1163 l 185 1218 l 304 1139 l 424 1219 l 506 1165 l 379 1011 z "},"ď":{"ha":774,"x_min":40,"x_max":788,"o":"m 597 0 l 457 0 l 432 50 q 374 11 401 22 q 293 0 347 0 l 172 0 q 76 153 111 58 q 40 365 40 247 q 76 564 40 482 q 176 710 111 646 l 296 710 q 413 671 369 710 l 413 972 l 597 972 l 597 0 m 413 564 l 279 564 q 228 349 228 476 q 278 146 228 222 l 413 146 l 413 564 m 788 972 l 644 972 l 644 696 l 760 696 l 788 972 z "},"Đ":{"ha":725,"x_min":18,"x_max":683,"o":"m 18 415 l 18 563 l 83 563 l 83 972 l 486 972 q 683 498 683 797 q 499 0 683 199 l 83 0 l 83 415 l 18 415 m 272 161 l 397 161 q 459 303 436 210 q 482 488 482 396 q 400 806 482 706 l 272 806 l 272 563 l 393 563 l 393 415 l 272 415 l 272 161 z "},"đ":{"ha":657,"x_min":40,"x_max":654,"o":"m 243 772 l 243 901 l 413 901 l 413 972 l 597 972 l 597 901 l 654 901 l 654 772 l 597 772 l 597 0 l 457 0 l 432 50 q 374 11 401 22 q 293 0 347 0 l 172 0 q 76 153 111 58 q 40 365 40 247 q 76 564 40 482 q 176 710 111 646 l 296 710 q 413 671 369 710 l 413 772 l 243 772 m 413 564 l 279 564 q 228 349 228 476 q 278 146 228 222 l 413 146 l 413 564 z "},"Ē":{"ha":611,"x_min":67,"x_max":571,"o":"m 67 972 l 67 0 l 571 0 l 571 161 l 257 161 l 257 413 l 532 413 l 532 574 l 257 574 l 257 806 l 565 806 l 565 972 l 67 972 m 144 1025 l 144 1164 l 494 1164 l 494 1025 l 144 1025 z "},"ē":{"ha":631,"x_min":40,"x_max":597,"o":"m 381 564 l 276 564 q 242 494 256 539 q 229 408 229 450 l 428 408 q 417 495 431 450 q 381 564 403 540 m 569 146 l 569 0 l 217 0 q 80 162 119 65 q 40 357 40 258 q 213 710 40 585 l 438 710 q 564 565 531 642 q 597 411 597 489 q 585 278 597 333 l 239 278 q 263 205 243 246 q 307 146 283 164 l 569 146 m 153 790 l 153 929 l 503 929 l 503 790 l 153 790 z "},"Ĕ":{"ha":611,"x_min":67,"x_max":571,"o":"m 67 0 l 67 972 l 565 972 l 565 806 l 257 806 l 257 574 l 532 574 l 532 413 l 257 413 l 257 161 l 571 161 l 571 0 l 67 0 m 113 1221 l 240 1221 q 290 1149 254 1167 l 344 1149 q 394 1221 381 1167 l 524 1221 q 378 1014 518 1071 l 258 1014 q 113 1221 121 1069 z "},"ĕ":{"ha":631,"x_min":40,"x_max":597,"o":"m 381 564 l 276 564 q 242 494 256 539 q 229 408 229 450 l 428 408 q 417 495 431 450 q 381 564 403 540 m 569 146 l 569 0 l 217 0 q 80 162 119 65 q 40 357 40 258 q 213 710 40 585 l 438 710 q 564 565 531 642 q 597 411 597 489 q 585 278 597 333 l 239 278 q 263 205 243 246 q 307 146 283 164 l 569 146 m 118 982 l 249 982 q 269 911 258 924 q 292 893 281 899 l 358 893 q 389 926 382 906 q 401 982 397 956 l 532 982 q 386 761 522 817 l 264 761 q 118 982 128 817 z "},"Ė":{"ha":611,"x_min":67,"x_max":571,"o":"m 67 972 l 67 0 l 571 0 l 571 161 l 257 161 l 257 413 l 532 413 l 532 574 l 257 574 l 257 806 l 565 806 l 565 972 l 67 972 m 231 1201 l 414 1201 l 414 1014 l 231 1014 l 231 1201 z "},"ė":{"ha":631,"x_min":40,"x_max":597,"o":"m 381 564 l 276 564 q 242 494 256 539 q 229 408 229 450 l 428 408 q 417 495 431 450 q 381 564 403 540 m 569 146 l 569 0 l 217 0 q 80 162 119 65 q 40 357 40 258 q 213 710 40 585 l 438 710 q 564 565 531 642 q 597 411 597 489 q 585 278 597 333 l 239 278 q 263 205 243 246 q 307 146 283 164 l 569 146 m 232 972 l 415 972 l 415 785 l 232 785 l 232 972 z "},"Ę":{"ha":611,"x_min":67,"x_max":571,"o":"m 67 0 l 67 972 l 565 972 l 565 806 l 257 806 l 257 574 l 532 574 l 532 413 l 257 413 l 257 161 l 571 161 l 571 0 l 467 -143 q 458 -167 458 -157 q 472 -176 458 -176 l 549 -176 l 549 -315 l 350 -315 q 299 -219 299 -283 q 364 -65 299 -154 l 413 0 l 67 0 z "},"ę":{"ha":631,"x_min":40,"x_max":597,"o":"m 569 146 l 569 0 l 453 -174 l 458 -183 l 547 -183 l 547 -315 l 335 -315 q 283 -221 283 -283 q 299 -154 283 -183 q 354 -72 314 -125 l 410 0 l 217 0 q 80 162 119 65 q 40 357 40 258 q 213 710 40 585 l 438 710 q 564 565 531 642 q 597 411 597 489 q 585 278 597 333 l 239 278 q 263 205 243 246 q 307 146 283 164 l 569 146 m 381 564 l 276 564 q 242 494 256 539 q 229 408 229 450 l 428 408 q 417 495 431 450 q 381 564 403 540 z "},"Ě":{"ha":611,"x_min":67,"x_max":571,"o":"m 67 972 l 67 0 l 571 0 l 571 161 l 257 161 l 257 413 l 532 413 l 532 574 l 257 574 l 257 806 l 565 806 l 565 972 l 67 972 m 399 1011 l 251 1011 l 122 1163 l 204 1218 l 324 1139 l 443 1219 l 525 1165 l 399 1011 z "},"ě":{"ha":631,"x_min":40,"x_max":597,"o":"m 381 564 l 276 564 q 242 494 256 539 q 229 408 229 450 l 428 408 q 417 495 431 450 q 381 564 403 540 m 569 146 l 569 0 l 217 0 q 80 162 119 65 q 40 357 40 258 q 213 710 40 585 l 438 710 q 564 565 531 642 q 597 411 597 489 q 585 278 597 333 l 239 278 q 263 205 243 246 q 307 146 283 164 l 569 146 m 406 763 l 242 763 l 131 951 l 218 997 l 324 890 l 429 997 l 518 951 l 406 763 z "},"Ĝ":{"ha":686,"x_min":42,"x_max":644,"o":"m 528 0 l 233 0 q 88 218 133 92 q 42 483 42 344 q 97 756 42 621 q 253 972 153 890 l 590 972 l 590 806 l 332 806 q 269 674 296 764 q 243 484 243 585 q 267 292 243 383 q 328 161 292 201 l 461 161 l 461 539 l 644 539 l 644 306 q 528 0 644 114 m 299 1219 l 446 1219 l 572 1065 l 490 1011 l 371 1092 l 251 1013 l 169 1068 l 299 1219 z "},"ĝ":{"ha":651,"x_min":40,"x_max":597,"o":"m 597 710 l 597 74 q 570 -96 597 -32 q 463 -208 543 -160 l 146 -208 l 146 -64 l 383 -64 q 418 3 418 -43 l 418 85 q 254 42 367 42 l 153 42 q 40 354 40 176 q 76 563 40 482 q 182 710 113 644 l 285 710 q 428 651 375 710 l 453 710 l 597 710 m 413 564 l 278 564 q 228 366 228 478 q 271 182 228 254 l 413 182 l 413 564 m 271 997 l 435 997 l 547 808 l 458 763 l 353 869 l 247 763 l 160 808 l 271 997 z "},"Ğ":{"ha":686,"x_min":42,"x_max":644,"o":"m 528 0 l 233 0 q 88 218 133 92 q 42 483 42 344 q 97 756 42 621 q 253 972 153 890 l 590 972 l 590 806 l 332 806 q 269 674 296 764 q 243 484 243 585 q 267 292 243 383 q 328 161 292 201 l 461 161 l 461 539 l 644 539 l 644 306 q 528 0 644 114 m 174 1221 l 301 1221 q 351 1149 315 1167 l 406 1149 q 456 1221 442 1167 l 585 1221 q 439 1014 579 1071 l 319 1014 q 174 1221 182 1069 z "},"ğ":{"ha":651,"x_min":40,"x_max":597,"o":"m 597 710 l 597 74 q 570 -96 597 -32 q 463 -208 543 -160 l 146 -208 l 146 -64 l 383 -64 q 418 3 418 -43 l 418 85 q 254 42 367 42 l 153 42 q 40 354 40 176 q 76 563 40 482 q 182 710 113 644 l 285 710 q 428 651 375 710 l 453 710 l 597 710 m 413 564 l 278 564 q 228 366 228 478 q 271 182 228 254 l 413 182 l 413 564 m 146 982 l 276 982 q 297 911 286 924 q 319 893 308 899 l 386 893 q 417 926 410 906 q 429 982 425 956 l 560 982 q 414 761 550 817 l 292 761 q 146 982 156 817 z "},"Ġ":{"ha":686,"x_min":42,"x_max":644,"o":"m 528 0 l 233 0 q 88 218 133 92 q 42 483 42 344 q 97 756 42 621 q 253 972 153 890 l 590 972 l 590 806 l 332 806 q 269 674 296 764 q 243 484 243 585 q 267 292 243 383 q 328 161 292 201 l 461 161 l 461 539 l 644 539 l 644 306 q 528 0 644 114 m 292 1201 l 475 1201 l 475 1014 l 292 1014 l 292 1201 z "},"ġ":{"ha":651,"x_min":40,"x_max":597,"o":"m 597 710 l 597 74 q 570 -96 597 -32 q 463 -208 543 -160 l 146 -208 l 146 -64 l 383 -64 q 418 3 418 -43 l 418 85 q 254 42 367 42 l 153 42 q 40 354 40 176 q 76 563 40 482 q 182 710 113 644 l 285 710 q 428 651 375 710 l 453 710 l 597 710 m 413 564 l 278 564 q 228 366 228 478 q 271 182 228 254 l 413 182 l 413 564 m 275 972 l 458 972 l 458 785 l 275 785 l 275 972 z "},"Ģ":{"ha":686,"x_min":42,"x_max":644,"o":"m 528 0 l 233 0 q 88 218 133 92 q 42 483 42 344 q 97 756 42 621 q 253 972 153 890 l 590 972 l 590 806 l 332 806 q 269 674 296 764 q 243 484 243 585 q 267 292 243 383 q 328 161 292 201 l 461 161 l 461 539 l 644 539 l 644 306 q 528 0 644 114 m 296 -282 l 296 -92 l 463 -92 l 463 -151 q 446 -306 463 -257 q 365 -443 429 -356 l 301 -407 q 357 -282 342 -339 l 296 -282 z "},"ģ":{"ha":651,"x_min":40,"x_max":597,"o":"m 597 710 l 597 74 q 570 -96 597 -32 q 463 -208 543 -160 l 146 -208 l 146 -64 l 383 -64 q 418 3 418 -43 l 418 85 q 254 42 367 42 l 153 42 q 40 354 40 176 q 76 563 40 482 q 182 710 113 644 l 285 710 q 428 651 375 710 l 453 710 l 597 710 m 413 564 l 278 564 q 228 366 228 478 q 271 182 228 254 l 413 182 l 413 564 m 429 951 l 429 761 l 263 761 l 263 821 q 279 976 263 926 q 360 1113 296 1025 l 424 1076 q 368 951 383 1008 l 429 951 z "},"Ĥ":{"ha":736,"x_min":67,"x_max":669,"o":"m 67 0 l 257 0 l 257 403 l 479 403 l 479 0 l 669 0 l 669 972 l 479 972 l 479 581 l 257 581 l 257 972 l 67 972 l 67 0 m 296 1219 l 443 1219 l 569 1065 l 488 1011 l 368 1092 l 249 1013 l 167 1068 l 296 1219 z "},"ĥ":{"ha":675,"x_min":-56,"x_max":621,"o":"m 383 710 l 515 710 q 599 554 576 632 q 621 360 621 476 l 621 0 l 436 0 l 436 374 q 400 564 436 506 l 244 564 l 244 0 l 60 0 l 60 972 l 244 972 l 244 660 q 302 699 275 688 q 383 710 329 710 m 74 1219 l 221 1219 l 347 1065 l 265 1011 l 146 1092 l 26 1013 l -56 1068 l 74 1219 z "},"Ħ":{"ha":756,"x_min":18,"x_max":738,"o":"m 267 0 l 76 0 l 76 696 l 18 696 l 18 854 l 76 854 l 76 972 l 267 972 l 267 854 l 489 854 l 489 972 l 679 972 l 679 854 l 738 854 l 738 696 l 679 696 l 679 0 l 489 0 l 489 403 l 267 403 l 267 0 m 267 581 l 489 581 l 489 696 l 267 696 l 267 581 z "},"ħ":{"ha":675,"x_min":-14,"x_max":621,"o":"m -14 772 l -14 901 l 60 901 l 60 972 l 244 972 l 244 901 l 397 901 l 397 772 l 244 772 l 244 660 q 302 699 275 688 q 383 710 329 710 l 515 710 q 599 554 576 632 q 621 360 621 476 l 621 0 l 436 0 l 436 374 q 400 564 436 506 l 244 564 l 244 0 l 60 0 l 60 772 l -14 772 z "},"Ĩ":{"ha":324,"x_min":-21,"x_max":343,"o":"m 67 0 l 67 972 l 257 972 l 257 0 l 67 0 m 226 1019 l 93 1054 q -21 1022 64 1054 l -21 1168 q 99 1206 68 1206 l 233 1168 q 343 1188 261 1168 l 343 1039 q 226 1019 258 1018 z "},"ĩ":{"ha":303,"x_min":-42,"x_max":322,"o":"m 60 0 l 60 710 l 243 710 l 243 0 l 60 0 m 206 774 l 72 808 q -42 776 43 808 l -42 915 q 78 953 47 953 l 213 915 q 322 935 240 915 l 322 793 q 206 774 238 772 z "},"Ī":{"ha":324,"x_min":-14,"x_max":336,"o":"m 67 972 l 67 0 l 257 0 l 257 972 l 67 972 m -14 1025 l -14 1164 l 336 1164 l 336 1025 l -14 1025 z "},"ī":{"ha":303,"x_min":-35,"x_max":315,"o":"m 60 710 l 60 0 l 243 0 l 243 710 l 60 710 m -35 790 l -35 929 l 315 929 l 315 790 l -35 790 z "},"Ĭ":{"ha":324,"x_min":-44,"x_max":367,"o":"m 67 0 l 67 972 l 257 972 l 257 0 l 67 0 m -44 1221 l 83 1221 q 133 1149 97 1167 l 188 1149 q 238 1221 224 1167 l 367 1221 q 221 1014 361 1071 l 101 1014 q -44 1221 -36 1069 z "},"ĭ":{"ha":303,"x_min":-67,"x_max":347,"o":"m 60 0 l 60 710 l 243 710 l 243 0 l 60 0 m -67 982 l 64 982 q 85 911 74 924 q 107 893 96 899 l 174 893 q 204 926 197 906 q 217 982 213 956 l 347 982 q 201 761 338 817 l 79 761 q -67 982 -57 817 z "},"Į":{"ha":324,"x_min":1,"x_max":265,"o":"m 257 972 l 257 0 l 168 -176 l 174 -183 l 265 -183 l 265 -315 l 53 -315 q 1 -221 1 -283 q 18 -147 1 -181 l 39 -107 q 68 -56 43 -97 l 100 0 l 67 0 l 67 972 l 257 972 z "},"į":{"ha":303,"x_min":-14,"x_max":250,"o":"m 60 0 l 60 710 l 243 710 l 243 0 l 153 -176 l 158 -183 l 250 -183 l 250 -315 l 38 -315 q -14 -221 -14 -283 q 3 -147 -14 -181 l 22 -107 q 53 -56 28 -97 l 85 0 l 60 0 m 60 972 l 243 972 l 243 785 l 60 785 l 60 972 z "},"İ":{"ha":324,"x_min":67,"x_max":257,"o":"m 67 972 l 67 0 l 257 0 l 257 972 l 67 972 m 69 1201 l 253 1201 l 253 1014 l 69 1014 l 69 1201 z "},"ı":{"ha":303,"x_min":60,"x_max":243,"o":"m 60 0 l 60 710 l 243 710 l 243 0 l 60 0 z "},"Ĳ":{"ha":768,"x_min":67,"x_max":710,"o":"m 67 0 l 67 972 l 257 972 l 257 0 l 67 0 m 338 161 l 481 161 q 513 235 506 193 q 519 407 519 278 l 519 972 l 710 972 l 710 472 q 706 328 710 379 q 689 211 703 276 q 557 0 663 88 l 338 0 l 338 161 z "},"ĳ":{"ha":607,"x_min":60,"x_max":558,"o":"m 60 0 l 60 710 l 243 710 l 243 0 l 60 0 m 60 972 l 243 972 l 243 785 l 60 785 l 60 972 m 376 710 l 558 710 l 558 71 q 533 -97 558 -35 q 429 -208 508 -160 l 246 -208 l 246 -62 l 342 -62 q 376 4 376 -42 l 376 710 m 376 972 l 558 972 l 558 771 l 376 771 l 376 972 z "},"Ĵ":{"ha":453,"x_min":22,"x_max":500,"o":"m 22 161 l 165 161 q 197 235 190 193 q 204 407 204 278 l 204 972 l 394 972 l 394 472 q 391 328 394 379 q 374 211 388 276 q 242 0 347 88 l 22 0 l 22 161 m 226 1219 l 374 1219 l 500 1065 l 418 1011 l 299 1092 l 179 1013 l 97 1068 l 226 1219 z "},"ĵ":{"ha":301,"x_min":-71,"x_max":331,"o":"m 60 710 l 242 710 l 242 71 q 217 -97 242 -35 q 113 -208 192 -160 l -71 -208 l -71 -62 l 25 -62 q 60 4 60 -42 l 60 710 m 54 997 l 218 997 l 331 808 l 242 763 l 136 869 l 31 763 l -57 808 l 54 997 z "},"Ķ":{"ha":643,"x_min":67,"x_max":643,"o":"m 67 0 l 67 972 l 257 972 l 257 563 l 264 563 l 438 972 l 633 972 l 431 508 l 643 0 l 432 0 l 267 425 l 257 425 l 257 0 l 67 0 m 246 -282 l 246 -92 l 413 -92 l 413 -151 q 396 -306 413 -257 q 315 -443 379 -356 l 251 -407 q 307 -282 292 -339 l 246 -282 z "},"ķ":{"ha":592,"x_min":60,"x_max":576,"o":"m 60 0 l 60 972 l 244 972 l 244 457 l 264 457 l 394 710 l 575 710 l 411 400 l 576 0 l 393 0 l 265 311 l 244 311 l 244 0 l 60 0 m 217 -282 l 217 -92 l 383 -92 l 383 -151 q 367 -306 383 -257 q 286 -443 350 -356 l 222 -407 q 278 -282 263 -339 l 217 -282 z "},"ĸ":{"ha":556,"x_min":49,"x_max":556,"o":"m 49 0 l 49 710 l 233 710 l 233 457 l 250 457 l 369 710 l 554 710 l 404 400 l 556 0 l 371 0 l 254 307 l 233 307 l 233 0 l 49 0 z "},"Ĺ":{"ha":574,"x_min":19,"x_max":546,"o":"m 67 972 l 67 0 l 546 0 l 546 161 l 257 161 l 257 972 l 67 972 m 19 1135 l 274 1249 l 326 1094 l 64 1014 l 19 1135 z "},"ĺ":{"ha":303,"x_min":40,"x_max":347,"o":"m 243 972 l 243 0 l 60 0 l 60 972 l 243 972 m 40 1135 l 294 1249 l 347 1094 l 85 1014 l 40 1135 z "},"Ļ":{"ha":574,"x_min":67,"x_max":546,"o":"m 67 0 l 67 972 l 257 972 l 257 161 l 546 161 l 546 0 l 67 0 m 229 -282 l 229 -92 l 396 -92 l 396 -151 q 379 -306 396 -257 q 299 -443 363 -356 l 235 -407 q 290 -282 275 -339 l 229 -282 z "},"ļ":{"ha":303,"x_min":60,"x_max":243,"o":"m 243 972 l 243 0 l 60 0 l 60 972 l 243 972 m 63 -282 l 63 -92 l 229 -92 l 229 -151 q 213 -306 229 -257 q 132 -443 196 -356 l 68 -407 q 124 -282 108 -339 l 63 -282 z "},"Ľ":{"ha":574,"x_min":67,"x_max":546,"o":"m 67 0 l 67 972 l 257 972 l 257 161 l 546 161 l 546 0 l 67 0 m 346 972 l 489 972 l 461 696 l 346 696 l 346 972 z "},"ľ":{"ha":422,"x_min":60,"x_max":436,"o":"m 243 972 l 243 0 l 60 0 l 60 972 l 243 972 m 436 972 l 293 972 l 293 696 l 408 696 l 436 972 z "},"Ŀ":{"ha":574,"x_min":67,"x_max":546,"o":"m 67 0 l 67 972 l 257 972 l 257 161 l 546 161 l 546 0 l 67 0 m 347 544 l 503 544 l 503 372 l 347 372 l 347 544 z "},"ŀ":{"ha":456,"x_min":60,"x_max":449,"o":"m 243 972 l 243 0 l 60 0 l 60 972 l 243 972 m 293 582 l 449 582 l 449 410 l 293 410 l 293 582 z "},"Ł":{"ha":574,"x_min":-25,"x_max":546,"o":"m -25 378 l -25 533 l 67 558 l 67 972 l 257 972 l 257 613 l 483 676 l 483 521 l 257 457 l 257 161 l 546 161 l 546 0 l 67 0 l 67 403 l -25 378 z "},"ł":{"ha":347,"x_min":-6,"x_max":350,"o":"m 265 972 l 265 621 l 350 647 l 350 493 l 265 467 l 265 0 l 82 0 l 82 413 l -6 386 l -6 540 l 82 567 l 82 972 l 265 972 z "},"Ń":{"ha":696,"x_min":67,"x_max":629,"o":"m 500 0 l 240 538 l 233 535 l 242 371 l 242 0 l 67 0 l 67 972 l 207 972 l 463 414 l 469 417 l 454 588 l 454 972 l 629 972 l 629 0 l 500 0 m 235 1135 l 489 1249 l 542 1094 l 279 1014 l 235 1135 z "},"ń":{"ha":675,"x_min":60,"x_max":621,"o":"m 368 710 l 515 710 q 599 554 576 632 q 621 360 621 476 l 621 0 l 436 0 l 436 374 q 400 564 436 506 l 244 564 l 244 0 l 60 0 l 60 710 l 204 710 l 229 660 q 287 699 260 688 q 368 710 314 710 m 211 871 l 449 1010 l 514 867 l 267 758 l 211 871 z "},"Ņ":{"ha":696,"x_min":67,"x_max":629,"o":"m 500 0 l 240 538 l 233 535 l 242 371 l 242 0 l 67 0 l 67 972 l 207 972 l 463 414 l 469 417 l 454 588 l 454 972 l 629 972 l 629 0 l 500 0 m 260 -282 l 260 -92 l 426 -92 l 426 -151 q 410 -306 426 -257 q 329 -443 393 -356 l 265 -407 q 321 -282 306 -339 l 260 -282 z "},"ņ":{"ha":675,"x_min":60,"x_max":621,"o":"m 368 710 l 515 710 q 599 554 576 632 q 621 360 621 476 l 621 0 l 436 0 l 436 374 q 400 564 436 506 l 244 564 l 244 0 l 60 0 l 60 710 l 204 710 l 229 660 q 287 699 260 688 q 368 710 314 710 m 251 -282 l 251 -92 l 418 -92 l 418 -151 q 401 -306 418 -257 q 321 -443 385 -356 l 257 -407 q 313 -282 297 -339 l 251 -282 z "},"Ň":{"ha":696,"x_min":67,"x_max":629,"o":"m 500 0 l 240 538 l 233 535 l 242 371 l 242 0 l 67 0 l 67 972 l 207 972 l 463 414 l 469 417 l 454 588 l 454 972 l 629 972 l 629 0 l 500 0 m 415 1011 l 268 1011 l 139 1163 l 221 1218 l 340 1139 l 460 1219 l 542 1165 l 415 1011 z "},"ň":{"ha":675,"x_min":60,"x_max":621,"o":"m 368 710 l 515 710 q 599 554 576 632 q 621 360 621 476 l 621 0 l 436 0 l 436 374 q 400 564 436 506 l 244 564 l 244 0 l 60 0 l 60 710 l 204 710 l 229 660 q 287 699 260 688 q 368 710 314 710 m 410 763 l 246 763 l 135 951 l 222 997 l 328 890 l 433 997 l 522 951 l 410 763 z "},"ŉ":{"ha":794,"x_min":-11,"x_max":740,"o":"m 488 710 l 635 710 q 718 554 696 632 q 740 360 740 476 l 740 0 l 556 0 l 556 374 q 519 564 556 506 l 364 564 l 364 0 l 179 0 l 179 710 l 324 710 l 349 660 q 406 699 379 688 q 488 710 433 710 m -11 749 l -11 919 l 161 919 l 161 875 q 144 722 161 774 q 71 596 126 671 l 4 632 q 57 749 44 694 l -11 749 z "},"Ŋ":{"ha":696,"x_min":67,"x_max":629,"o":"m 414 -49 q 449 18 449 -28 l 449 107 l 629 71 q 601 -96 629 -32 q 492 -208 572 -160 l 335 -208 l 335 -49 l 414 -49 m 500 0 l 240 538 l 233 535 l 242 371 l 242 0 l 67 0 l 67 972 l 207 972 l 463 414 l 469 417 l 454 588 l 454 972 l 629 972 l 629 71 l 500 0 z "},"ŋ":{"ha":675,"x_min":54,"x_max":621,"o":"m 368 710 l 515 710 q 599 554 576 632 q 621 360 621 476 l 621 71 q 592 -96 621 -32 q 483 -208 564 -160 l 278 -208 l 278 -62 l 401 -62 q 436 4 436 -42 l 436 374 q 400 564 436 506 l 244 564 l 244 0 l 60 0 l 60 493 q 54 710 60 614 l 204 710 l 229 660 q 287 699 260 688 q 368 710 314 710 z "},"Ō":{"ha":753,"x_min":42,"x_max":711,"o":"m 201 1025 l 201 1164 l 551 1164 l 551 1025 l 201 1025 m 519 972 q 664 760 617 893 q 711 485 711 626 q 665 218 711 344 q 519 0 619 92 l 233 0 q 88 218 133 92 q 42 485 42 344 q 89 760 42 626 q 233 972 136 893 l 519 972 m 326 161 l 426 161 q 485 292 461 201 q 510 485 510 383 q 486 676 510 586 q 428 806 463 765 l 326 806 q 267 676 292 765 q 243 485 243 586 q 267 292 243 383 q 326 161 292 201 z "},"ō":{"ha":661,"x_min":40,"x_max":621,"o":"m 482 0 l 179 0 q 40 353 40 129 q 72 549 40 465 q 171 710 103 632 l 496 710 q 594 548 568 626 q 621 353 621 469 q 482 0 621 129 m 278 146 l 383 146 q 433 367 433 243 q 382 564 433 490 l 278 564 q 228 363 228 493 q 278 146 228 233 m 150 790 l 150 929 l 500 929 l 500 790 l 150 790 z "},"Ŏ":{"ha":753,"x_min":42,"x_max":711,"o":"m 172 1221 l 300 1221 q 350 1149 314 1167 l 404 1149 q 454 1221 440 1167 l 583 1221 q 438 1014 578 1071 l 318 1014 q 172 1221 181 1069 m 519 972 q 664 760 617 893 q 711 485 711 626 q 665 218 711 344 q 519 0 619 92 l 233 0 q 88 218 133 92 q 42 485 42 344 q 89 760 42 626 q 233 972 136 893 l 519 972 m 326 161 l 426 161 q 485 292 461 201 q 510 485 510 383 q 486 676 510 586 q 428 806 463 765 l 326 806 q 267 676 292 765 q 243 485 243 586 q 267 292 243 383 q 326 161 292 201 z "},"ŏ":{"ha":661,"x_min":40,"x_max":621,"o":"m 482 0 l 179 0 q 40 353 40 129 q 72 549 40 465 q 171 710 103 632 l 496 710 q 594 548 568 626 q 621 353 621 469 q 482 0 621 129 m 278 146 l 383 146 q 433 367 433 243 q 382 564 433 490 l 278 564 q 228 363 228 493 q 278 146 228 233 m 118 982 l 249 982 q 269 911 258 924 q 292 893 281 899 l 358 893 q 389 926 382 906 q 401 982 397 956 l 532 982 q 386 761 522 817 l 264 761 q 118 982 128 817 z "},"Ő":{"ha":753,"x_min":42,"x_max":711,"o":"m 403 1082 l 564 1304 l 685 1211 l 501 1013 l 403 1082 m 201 1096 l 342 1332 l 472 1250 l 307 1035 l 201 1096 m 519 972 q 664 760 617 893 q 711 485 711 626 q 665 218 711 344 q 519 0 619 92 l 233 0 q 88 218 133 92 q 42 485 42 344 q 89 760 42 626 q 233 972 136 893 l 519 972 m 326 161 l 426 161 q 485 292 461 201 q 510 485 510 383 q 486 676 510 586 q 428 806 463 765 l 326 806 q 267 676 292 765 q 243 485 243 586 q 267 292 243 383 q 326 161 292 201 z "},"ő":{"ha":661,"x_min":40,"x_max":621,"o":"m 179 0 l 482 0 q 621 353 621 129 q 594 548 621 469 q 496 710 568 626 l 171 710 q 72 549 103 632 q 40 353 40 465 q 179 0 40 129 m 383 146 l 278 146 q 228 363 228 233 q 278 564 228 493 l 382 564 q 433 367 433 490 q 383 146 433 243 m 347 821 l 485 1060 l 615 975 l 454 758 l 347 821 m 142 808 l 257 1058 l 396 988 l 254 757 l 142 808 z "},"Œ":{"ha":1049,"x_min":42,"x_max":1008,"o":"m 1003 972 l 1003 806 l 644 806 q 706 574 690 704 l 969 574 l 969 413 l 708 413 q 639 161 697 275 l 1008 161 l 1008 0 l 233 0 q 88 218 133 92 q 42 485 42 344 q 89 760 42 626 q 233 972 136 893 l 1003 972 m 326 161 l 426 161 q 485 292 461 201 q 510 485 510 383 q 486 676 510 586 q 428 806 463 765 l 326 806 q 267 676 292 765 q 243 485 243 586 q 267 292 243 383 q 326 161 292 201 z "},"œ":{"ha":1010,"x_min":40,"x_max":976,"o":"m 949 146 l 949 0 l 604 0 q 533 71 565 25 q 476 0 508 31 l 179 0 q 40 353 40 129 q 72 549 40 465 q 171 710 103 632 l 475 710 q 536 636 500 689 q 608 710 560 674 l 817 710 q 943 565 910 642 q 976 411 976 489 q 964 278 976 333 l 618 278 q 642 205 622 246 q 686 146 663 164 l 949 146 m 278 144 l 383 144 q 433 366 433 242 q 382 564 433 490 l 278 564 q 228 363 228 493 q 278 144 228 232 m 760 564 l 656 564 q 622 494 635 539 q 608 408 608 450 l 807 408 q 796 495 810 450 q 760 564 782 540 z "},"Ŕ":{"ha":681,"x_min":67,"x_max":647,"o":"m 436 972 l 67 972 l 67 0 l 254 0 l 254 354 l 328 354 l 446 0 l 640 0 l 500 399 q 647 672 647 486 q 585 865 647 786 q 436 972 524 943 m 254 510 l 254 806 l 382 806 q 430 757 406 800 q 454 657 454 714 q 426 558 454 600 q 374 510 397 515 l 254 510 m 217 1135 l 471 1249 l 524 1094 l 261 1014 l 217 1135 z "},"ŕ":{"ha":442,"x_min":61,"x_max":460,"o":"m 61 0 l 61 710 l 193 710 l 228 635 q 368 710 283 710 l 422 710 l 422 524 l 246 524 l 246 0 l 61 0 m 157 871 l 394 1010 l 460 867 l 213 758 l 157 871 z "},"Ŗ":{"ha":681,"x_min":67,"x_max":647,"o":"m 67 972 l 436 972 q 585 865 524 943 q 647 672 647 786 q 500 399 647 486 l 640 0 l 446 0 l 328 354 l 254 354 l 254 0 l 67 0 l 67 972 m 254 806 l 254 510 l 374 510 q 426 558 397 515 q 454 657 454 600 q 430 757 454 714 q 382 806 406 800 l 254 806 m 268 -282 l 268 -92 l 435 -92 l 435 -151 q 418 -306 435 -257 q 338 -443 401 -356 l 274 -407 q 329 -282 314 -339 l 268 -282 z "},"ŗ":{"ha":442,"x_min":61,"x_max":422,"o":"m 61 0 l 61 710 l 193 710 l 228 635 q 368 710 283 710 l 422 710 l 422 524 l 246 524 l 246 0 l 61 0 m 64 -282 l 64 -92 l 231 -92 l 231 -151 q 214 -306 231 -257 q 133 -443 197 -356 l 69 -407 q 125 -282 110 -339 l 64 -282 z "},"Ř":{"ha":681,"x_min":67,"x_max":647,"o":"m 436 972 l 67 972 l 67 0 l 254 0 l 254 354 l 328 354 l 446 0 l 640 0 l 500 399 q 647 672 647 486 q 585 865 647 786 q 436 972 524 943 m 254 510 l 254 806 l 382 806 q 430 757 406 800 q 454 657 454 714 q 426 558 454 600 q 374 510 397 515 l 254 510 m 383 1011 l 236 1011 l 107 1163 l 189 1218 l 308 1139 l 428 1219 l 510 1165 l 383 1011 z "},"ř":{"ha":442,"x_min":53,"x_max":440,"o":"m 61 710 l 61 0 l 246 0 l 246 524 l 422 524 l 422 710 l 368 710 q 228 635 283 710 l 193 710 l 61 710 m 328 763 l 164 763 l 53 951 l 140 997 l 246 890 l 351 997 l 440 951 l 328 763 z "},"Ś":{"ha":539,"x_min":35,"x_max":508,"o":"m 153 1135 l 407 1249 l 460 1094 l 197 1014 l 153 1135 m 156 972 l 489 972 l 489 806 l 222 806 l 218 797 l 440 392 q 508 206 508 269 q 415 0 508 65 l 47 0 l 47 161 l 335 161 l 339 169 l 89 618 q 35 776 35 715 q 156 972 35 921 z "},"ś":{"ha":486,"x_min":28,"x_max":456,"o":"m 129 710 l 436 710 l 436 564 l 219 564 l 351 368 q 450 194 440 242 q 456 149 456 172 q 382 0 456 50 l 28 0 l 28 146 l 282 146 l 133 364 q 103 407 124 379 q 72 452 83 435 q 57 478 61 469 q 46 499 53 486 q 36 522 39 513 q 31 565 31 549 q 129 710 31 667 m 113 871 l 350 1010 l 415 867 l 168 758 l 113 871 z "},"Ŝ":{"ha":539,"x_min":35,"x_max":508,"o":"m 214 1219 l 361 1219 l 488 1065 l 406 1011 l 286 1092 l 167 1013 l 85 1068 l 214 1219 m 156 972 l 489 972 l 489 806 l 222 806 l 218 797 l 440 392 q 508 206 508 269 q 415 0 508 65 l 47 0 l 47 161 l 335 161 l 339 169 l 89 618 q 35 776 35 715 q 156 972 35 921 z "},"ŝ":{"ha":486,"x_min":28,"x_max":456,"o":"m 129 710 l 436 710 l 436 564 l 219 564 l 351 368 q 450 194 440 242 q 456 149 456 172 q 382 0 456 50 l 28 0 l 28 146 l 282 146 l 133 364 q 103 407 124 379 q 72 452 83 435 q 57 478 61 469 q 46 499 53 486 q 36 522 39 513 q 31 565 31 549 q 129 710 31 667 m 158 997 l 322 997 l 435 808 l 346 763 l 240 869 l 135 763 l 47 808 l 158 997 z "},"Ş":{"ha":539,"x_min":35,"x_max":508,"o":"m 156 972 l 489 972 l 489 806 l 222 806 l 218 797 l 440 392 q 508 206 508 269 q 415 0 508 65 l 326 0 l 294 -83 q 325 -114 315 -101 q 356 -203 356 -150 q 331 -296 356 -256 q 267 -361 306 -336 l 144 -361 l 144 -249 l 207 -249 q 220 -217 219 -240 q 207 -183 221 -193 l 172 -183 l 172 -83 l 208 0 l 47 0 l 47 161 l 335 161 l 339 169 l 89 618 q 35 776 35 715 q 156 972 35 921 z "},"ş":{"ha":486,"x_min":28,"x_max":456,"o":"m 178 -183 l 143 -183 l 143 -83 l 179 0 l 28 0 l 28 146 l 282 146 l 133 364 q 103 407 124 379 q 72 452 83 435 q 57 478 61 469 q 46 499 53 486 q 36 522 39 513 q 31 565 31 549 q 129 710 31 667 l 436 710 l 436 564 l 219 564 l 351 368 q 450 194 440 242 q 456 149 456 172 q 382 0 456 50 l 297 0 l 265 -83 q 296 -114 286 -101 q 326 -203 326 -150 q 301 -296 326 -256 q 238 -361 276 -336 l 115 -361 l 115 -249 l 178 -249 q 191 -217 190 -240 q 178 -183 192 -193 z "},"Š":{"ha":539,"x_min":35,"x_max":508,"o":"m 358 1011 l 211 1011 l 82 1163 l 164 1218 l 283 1139 l 403 1219 l 485 1165 l 358 1011 m 156 972 l 489 972 l 489 806 l 222 806 l 218 797 l 440 392 q 508 206 508 269 q 415 0 508 65 l 47 0 l 47 161 l 335 161 l 339 169 l 89 618 q 35 776 35 715 q 156 972 35 921 z "},"š":{"ha":486,"x_min":28,"x_max":456,"o":"m 436 710 l 129 710 q 31 565 31 667 q 42 507 31 528 q 57 478 53 486 q 72 452 61 469 q 89 428 83 435 q 133 364 124 379 l 282 146 l 28 146 l 28 0 l 382 0 q 456 149 456 50 q 438 230 456 196 q 413 278 421 264 q 351 368 400 299 l 219 564 l 436 564 l 436 710 m 324 763 l 160 763 l 49 951 l 136 997 l 242 890 l 347 997 l 436 951 l 324 763 z "},"Ţ":{"ha":636,"x_min":14,"x_max":622,"o":"m 261 -183 l 226 -183 l 226 -83 l 263 0 l 224 0 l 224 806 l 14 806 l 14 972 l 622 972 l 622 806 l 413 806 l 413 0 l 381 0 l 349 -83 q 379 -114 369 -101 q 410 -203 410 -150 q 385 -296 410 -256 q 321 -361 360 -336 l 199 -361 l 199 -249 l 261 -249 q 274 -217 274 -240 q 261 -183 275 -193 z "},"ţ":{"ha":433,"x_min":6,"x_max":400,"o":"m 226 -183 l 192 -183 l 192 -83 l 228 0 l 203 0 q 114 147 129 68 q 101 310 101 214 l 101 564 l 6 564 l 6 710 l 101 710 l 101 903 l 286 903 l 286 710 l 400 710 l 400 564 l 286 564 l 286 265 q 315 146 286 181 l 400 146 l 400 0 l 346 0 l 314 -83 q 344 -114 335 -101 q 375 -203 375 -150 q 350 -296 375 -256 q 286 -361 325 -336 l 164 -361 l 164 -249 l 226 -249 q 240 -217 239 -240 q 226 -183 240 -193 z "},"Ť":{"ha":636,"x_min":14,"x_max":622,"o":"m 224 806 l 14 806 l 14 972 l 622 972 l 622 806 l 413 806 l 413 0 l 224 0 l 224 806 m 393 1011 l 246 1011 l 117 1163 l 199 1218 l 318 1139 l 438 1219 l 519 1165 l 393 1011 z "},"ť":{"ha":465,"x_min":6,"x_max":486,"o":"m 101 310 l 101 564 l 6 564 l 6 710 l 101 710 l 101 903 l 286 903 l 286 710 l 400 710 l 400 564 l 286 564 l 286 265 q 315 146 286 181 l 400 146 l 400 0 l 203 0 q 114 147 129 68 q 101 310 101 214 m 343 1044 l 486 1044 l 458 768 l 343 768 l 343 1044 z "},"Ŧ":{"ha":636,"x_min":14,"x_max":622,"o":"m 224 806 l 14 806 l 14 972 l 622 972 l 622 806 l 413 806 l 413 504 l 565 504 l 565 346 l 413 346 l 413 0 l 224 0 l 224 346 l 74 346 l 74 504 l 224 504 l 224 806 z "},"ŧ":{"ha":433,"x_min":0,"x_max":400,"o":"m 0 286 l 0 432 l 101 432 l 101 564 l 6 564 l 6 710 l 101 710 l 101 903 l 286 903 l 286 710 l 400 710 l 400 564 l 286 564 l 286 432 l 394 432 l 394 286 l 286 286 l 286 265 q 315 146 286 181 l 400 146 l 400 0 l 203 0 q 120 122 139 57 q 101 286 101 188 l 0 286 z "},"Ũ":{"ha":731,"x_min":60,"x_max":671,"o":"m 307 161 l 424 161 q 467 228 454 194 q 481 329 481 263 l 481 972 l 671 972 l 671 399 q 667 288 671 328 q 650 192 664 249 q 519 0 626 90 l 211 0 q 81 192 104 88 q 60 399 60 276 l 60 972 l 250 972 l 250 329 q 263 228 250 263 q 307 161 276 194 m 431 1019 l 297 1054 q 183 1022 268 1054 l 183 1168 q 303 1206 272 1206 l 438 1168 q 547 1188 465 1168 l 547 1039 q 431 1019 463 1018 z "},"ũ":{"ha":663,"x_min":54,"x_max":603,"o":"m 306 0 l 160 0 q 76 156 99 78 q 54 350 54 233 l 54 710 l 239 710 l 239 336 q 289 146 239 210 l 418 146 l 418 710 l 603 710 l 603 0 l 457 0 l 432 50 q 306 0 379 0 m 393 774 l 260 808 q 146 776 231 808 l 146 915 q 265 953 235 953 l 400 915 q 510 935 428 915 l 510 793 q 393 774 425 772 z "},"Ū":{"ha":731,"x_min":60,"x_max":671,"o":"m 307 161 l 424 161 q 467 228 454 194 q 481 329 481 263 l 481 972 l 671 972 l 671 399 q 667 288 671 328 q 650 192 664 249 q 519 0 626 90 l 211 0 q 81 192 104 88 q 60 399 60 276 l 60 972 l 250 972 l 250 329 q 263 228 250 263 q 307 161 276 194 m 190 1025 l 190 1164 l 540 1164 l 540 1025 l 190 1025 z "},"ū":{"ha":663,"x_min":54,"x_max":603,"o":"m 306 0 l 160 0 q 76 156 99 78 q 54 350 54 233 l 54 710 l 239 710 l 239 336 q 289 146 239 210 l 418 146 l 418 710 l 603 710 l 603 0 l 457 0 l 432 50 q 306 0 379 0 m 150 790 l 150 929 l 500 929 l 500 790 l 150 790 z "},"Ŭ":{"ha":731,"x_min":60,"x_max":671,"o":"m 307 161 l 424 161 q 467 228 454 194 q 481 329 481 263 l 481 972 l 671 972 l 671 399 q 667 288 671 328 q 650 192 664 249 q 519 0 626 90 l 211 0 q 81 192 104 88 q 60 399 60 276 l 60 972 l 250 972 l 250 329 q 263 228 250 263 q 307 161 276 194 m 161 1221 l 289 1221 q 339 1149 303 1167 l 393 1149 q 443 1221 429 1167 l 572 1221 q 426 1014 567 1071 l 307 1014 q 161 1221 169 1069 z "},"ŭ":{"ha":663,"x_min":54,"x_max":603,"o":"m 306 0 l 160 0 q 76 156 99 78 q 54 350 54 233 l 54 710 l 239 710 l 239 336 q 289 146 239 210 l 418 146 l 418 710 l 603 710 l 603 0 l 457 0 l 432 50 q 306 0 379 0 m 118 982 l 249 982 q 269 911 258 924 q 292 893 281 899 l 358 893 q 389 926 382 906 q 401 982 397 956 l 532 982 q 386 761 522 817 l 264 761 q 118 982 128 817 z "},"Ů":{"ha":731,"x_min":60,"x_max":671,"o":"m 307 161 l 424 161 q 467 228 454 194 q 481 329 481 263 l 481 972 l 671 972 l 671 399 q 667 288 671 328 q 650 192 664 249 q 519 0 626 90 l 211 0 q 81 192 104 88 q 60 399 60 276 l 60 972 l 250 972 l 250 329 q 263 228 250 263 q 307 161 276 194 m 303 1353 l 428 1353 q 539 1179 539 1299 q 510 1081 539 1126 q 428 1011 481 1036 l 303 1011 q 221 1081 250 1036 q 192 1179 192 1126 q 303 1353 192 1299 m 339 1113 l 390 1113 q 419 1182 419 1142 q 390 1249 419 1222 l 339 1249 q 311 1181 311 1221 q 339 1113 311 1140 z "},"ů":{"ha":663,"x_min":54,"x_max":603,"o":"m 306 0 l 160 0 q 76 156 99 78 q 54 350 54 233 l 54 710 l 239 710 l 239 336 q 289 146 239 210 l 418 146 l 418 710 l 603 710 l 603 0 l 457 0 l 432 50 q 306 0 379 0 m 263 1103 l 388 1103 q 499 929 499 1049 q 469 831 499 876 q 388 761 440 786 l 263 761 q 181 831 210 786 q 151 929 151 876 q 263 1103 151 1049 m 299 863 l 350 863 q 379 932 379 892 q 350 999 379 972 l 299 999 q 271 931 271 971 q 299 863 271 890 z "},"Ű":{"ha":731,"x_min":60,"x_max":671,"o":"m 307 161 l 424 161 q 467 228 454 194 q 481 329 481 263 l 481 972 l 671 972 l 671 399 q 667 288 671 328 q 650 192 664 249 q 519 0 626 90 l 211 0 q 81 192 104 88 q 60 399 60 276 l 60 972 l 250 972 l 250 329 q 263 228 250 263 q 307 161 276 194 m 363 1082 l 524 1304 l 644 1211 l 461 1013 l 363 1082 m 161 1096 l 301 1332 l 432 1250 l 267 1035 l 161 1096 z "},"ű":{"ha":663,"x_min":54,"x_max":603,"o":"m 306 0 l 160 0 q 76 156 99 78 q 54 350 54 233 l 54 710 l 239 710 l 239 336 q 289 146 239 210 l 418 146 l 418 710 l 603 710 l 603 0 l 457 0 l 432 50 q 306 0 379 0 m 319 821 l 457 1060 l 588 975 l 426 758 l 319 821 m 114 808 l 229 1058 l 368 988 l 226 757 l 114 808 z "},"Ų":{"ha":731,"x_min":60,"x_max":671,"o":"m 307 161 l 424 161 q 467 228 454 194 q 481 329 481 263 l 481 972 l 671 972 l 671 399 q 647 185 671 253 q 563 27 624 118 q 442 -176 501 -64 l 447 -183 l 539 -183 l 539 -315 l 326 -315 q 275 -221 275 -283 q 292 -147 275 -181 l 311 -107 q 342 -56 317 -97 l 374 0 l 211 0 q 81 192 104 88 q 60 399 60 276 l 60 972 l 250 972 l 250 329 q 263 228 250 263 q 307 161 276 194 z "},"ų":{"ha":663,"x_min":54,"x_max":611,"o":"m 306 0 l 160 0 q 76 156 99 78 q 54 350 54 233 l 54 710 l 239 710 l 239 336 q 289 146 239 210 l 418 146 l 418 710 l 603 710 l 603 0 l 514 -176 l 519 -183 l 611 -183 l 611 -315 l 399 -315 q 347 -221 347 -283 q 364 -147 347 -181 l 383 -107 q 414 -56 389 -97 l 451 10 l 432 50 q 306 0 379 0 z "},"Ŵ":{"ha":894,"x_min":14,"x_max":881,"o":"m 546 0 l 449 574 l 443 574 l 343 0 l 149 0 l 14 972 l 200 972 l 239 686 l 268 364 l 275 364 l 326 685 l 369 972 l 526 972 l 568 685 l 621 364 l 628 364 l 656 686 l 694 972 l 881 972 l 746 0 l 546 0 m 375 1219 l 522 1219 l 649 1065 l 567 1011 l 447 1092 l 328 1013 l 246 1068 l 375 1219 z "},"ŵ":{"ha":950,"x_min":56,"x_max":894,"o":"m 567 710 l 383 710 l 383 146 l 285 146 q 240 340 240 217 l 240 710 l 56 710 l 56 340 q 186 0 56 92 l 301 0 q 472 64 403 0 q 649 0 542 0 l 764 0 q 894 340 894 106 l 894 710 l 710 710 l 710 349 q 664 146 710 219 l 567 146 l 567 710 m 388 997 l 551 997 l 664 808 l 575 763 l 469 869 l 364 763 l 276 808 l 388 997 z "},"Ŷ":{"ha":614,"x_min":0,"x_max":614,"o":"m 408 0 l 206 0 l 206 324 l 0 972 l 189 972 l 275 676 l 304 506 l 310 506 l 339 676 l 425 972 l 614 972 l 408 324 l 408 0 m 236 1219 l 383 1219 l 510 1065 l 428 1011 l 308 1092 l 189 1013 l 107 1068 l 236 1219 z "},"ŷ":{"ha":657,"x_min":49,"x_max":601,"o":"m 56 390 q 94 188 56 281 q 200 42 133 96 l 296 42 l 288 26 q 247 -33 267 -12 q 199 -62 228 -54 l 49 -62 l 49 -208 l 268 -208 q 340 -178 313 -199 q 393 -114 368 -157 l 486 38 q 574 217 547 138 q 601 400 601 296 l 601 710 l 417 710 l 417 389 q 371 188 417 267 l 289 188 q 240 389 240 268 l 240 710 l 56 710 l 56 390 m 236 997 l 400 997 l 513 808 l 424 763 l 318 869 l 213 763 l 125 808 l 236 997 z "},"Ÿ":{"ha":614,"x_min":0,"x_max":614,"o":"m 408 0 l 206 0 l 206 324 l 0 972 l 189 972 l 275 676 l 304 506 l 310 506 l 339 676 l 425 972 l 614 972 l 408 324 l 408 0 m 97 1014 l 97 1201 l 281 1201 l 281 1014 l 97 1014 m 338 1014 l 338 1201 l 521 1201 l 521 1014 l 338 1014 z "},"Ź":{"ha":600,"x_min":33,"x_max":565,"o":"m 235 161 l 564 810 l 564 972 l 33 972 l 33 806 l 361 806 l 33 158 l 33 0 l 565 0 l 565 161 l 235 161 m 161 1135 l 415 1249 l 468 1094 l 206 1014 l 161 1135 z "},"ź":{"ha":558,"x_min":33,"x_max":525,"o":"m 525 603 l 257 146 l 522 146 l 522 0 l 33 0 l 33 107 l 306 564 l 50 564 l 50 710 l 525 710 l 525 603 m 129 871 l 367 1010 l 432 867 l 185 758 l 129 871 z "},"Ż":{"ha":600,"x_min":33,"x_max":565,"o":"m 235 161 l 564 810 l 564 972 l 33 972 l 33 806 l 361 806 l 33 158 l 33 0 l 565 0 l 565 161 l 235 161 m 218 1201 l 401 1201 l 401 1014 l 218 1014 l 218 1201 z "},"ż":{"ha":558,"x_min":33,"x_max":525,"o":"m 525 603 l 257 146 l 522 146 l 522 0 l 33 0 l 33 107 l 306 564 l 50 564 l 50 710 l 525 710 l 525 603 m 196 972 l 379 972 l 379 785 l 196 785 l 196 972 z "},"Ž":{"ha":600,"x_min":33,"x_max":565,"o":"m 235 161 l 564 810 l 564 972 l 33 972 l 33 806 l 361 806 l 33 158 l 33 0 l 565 0 l 565 161 l 235 161 m 383 1011 l 236 1011 l 107 1163 l 189 1218 l 308 1139 l 428 1219 l 510 1165 l 383 1011 z "},"ž":{"ha":558,"x_min":33,"x_max":525,"o":"m 257 146 l 525 603 l 525 710 l 50 710 l 50 564 l 306 564 l 33 107 l 33 0 l 522 0 l 522 146 l 257 146 m 369 763 l 206 763 l 94 951 l 182 997 l 288 890 l 393 997 l 482 951 l 369 763 z "},"ſ":{"ha":431,"x_min":13,"x_max":446,"o":"m 246 972 l 446 972 l 446 826 l 321 826 q 274 710 274 797 l 274 0 l 89 0 l 89 564 l 13 564 l 13 710 l 89 710 q 246 972 89 890 z "},"ƒ":{"ha":542,"x_min":21,"x_max":489,"o":"m 340 431 l 340 113 q 307 -83 340 -4 q 190 -208 274 -161 l 21 -208 l 21 -62 l 113 -62 q 144 -10 136 -39 q 151 68 151 18 l 151 431 l 35 431 l 35 575 l 151 575 l 151 665 q 311 972 151 874 l 489 972 l 489 806 l 379 806 q 347 756 354 781 q 340 685 340 732 l 340 575 l 489 575 l 489 431 l 340 431 z "},"Ǻ":{"ha":681,"x_min":14,"x_max":667,"o":"m 281 1239 l 406 1239 q 517 1065 517 1185 q 489 969 517 1013 l 667 0 l 481 0 l 451 154 l 232 154 l 203 0 l 14 0 l 200 964 q 169 1065 169 1008 q 281 1239 169 1185 m 339 792 l 285 468 l 254 303 l 428 303 l 396 468 l 342 792 l 339 792 m 213 1385 l 467 1499 l 519 1344 l 257 1264 l 213 1385 m 317 999 l 368 999 q 397 1068 397 1028 q 368 1135 397 1108 l 317 1135 q 289 1067 289 1107 q 317 999 289 1026 z "},"ǻ":{"ha":636,"x_min":40,"x_max":582,"o":"m 394 321 l 246 321 q 217 231 217 285 q 247 146 217 176 l 394 146 l 394 321 m 96 710 l 440 710 q 550 595 524 660 q 576 419 576 531 l 576 211 q 582 0 576 96 l 424 0 l 399 50 q 246 0 344 0 l 158 0 q 40 224 40 78 q 161 456 40 371 l 292 456 q 393 422 346 456 l 393 492 q 346 564 393 546 l 96 564 l 96 710 m 244 1089 l 369 1089 q 481 915 481 1035 q 451 817 481 863 q 369 747 422 772 l 244 747 q 163 817 192 772 q 133 915 133 863 q 244 1089 133 1035 m 281 849 l 332 849 q 361 918 361 878 q 332 985 361 958 l 281 985 q 253 917 253 957 q 281 849 253 876 m 164 1225 l 401 1364 l 467 1221 l 219 1113 l 164 1225 z "},"Ǽ":{"ha":938,"x_min":7,"x_max":897,"o":"m 7 0 l 258 972 l 892 972 l 892 806 l 583 806 l 583 574 l 858 574 l 858 413 l 583 413 l 583 161 l 897 161 l 897 0 l 393 0 l 393 236 l 251 236 l 196 0 l 7 0 m 385 806 l 286 386 l 393 386 l 393 806 l 385 806 m 456 1133 l 693 1272 l 758 1129 l 511 1021 l 456 1133 z "},"ǽ":{"ha":983,"x_min":40,"x_max":950,"o":"m 922 144 l 922 0 l 569 0 q 506 54 542 18 q 357 0 444 0 l 158 0 q 40 224 40 78 q 161 456 40 371 l 292 456 q 393 422 346 456 l 393 492 q 346 564 393 546 l 96 564 l 96 710 l 428 710 q 503 649 474 690 q 572 710 525 674 l 790 710 q 917 565 883 642 q 950 411 950 489 q 938 278 950 333 l 592 278 q 616 204 596 246 q 660 144 636 163 l 922 144 m 394 321 l 246 321 q 217 231 217 285 q 247 146 217 176 l 440 146 q 394 321 399 228 m 733 564 l 629 564 q 595 494 608 539 q 582 408 582 450 l 781 408 q 767 494 781 446 q 733 564 754 542 m 406 871 l 643 1010 l 708 867 l 461 758 l 406 871 z "},"Ǿ":{"ha":753,"x_min":42,"x_max":711,"o":"m 138 -69 l 179 57 q 42 472 42 228 q 89 760 42 626 q 233 972 136 893 l 433 972 l 457 1042 l 628 1042 l 583 907 q 711 472 711 743 q 665 218 711 344 q 519 0 619 92 l 331 0 l 308 -69 l 138 -69 m 326 161 l 426 161 q 485 292 461 201 q 510 485 510 383 q 486 676 510 586 q 428 806 463 765 l 326 806 q 267 676 292 765 q 243 485 243 586 q 267 292 243 383 q 326 161 292 201 m 247 1135 l 501 1249 l 554 1094 l 292 1014 l 247 1135 z "},"ǿ":{"ha":661,"x_min":40,"x_max":621,"o":"m 233 856 l 432 1044 l 529 919 l 313 758 l 233 856 m 406 810 l 371 710 l 171 710 q 72 549 103 632 q 40 353 40 465 q 139 43 40 167 l 89 -107 l 260 -107 l 294 0 l 482 0 q 621 353 621 129 q 601 527 621 456 q 529 669 581 599 l 576 810 l 406 810 m 383 146 l 278 146 q 228 363 228 233 q 278 564 228 493 l 382 564 q 433 367 433 490 q 383 146 433 243 z "},"Ș":{"ha":539,"x_min":35,"x_max":508,"o":"m 178 -282 l 178 -92 l 344 -92 l 344 -151 q 328 -306 344 -257 q 247 -443 311 -356 l 183 -407 q 239 -282 224 -339 l 178 -282 m 156 972 l 489 972 l 489 806 l 222 806 l 218 797 l 440 392 q 508 206 508 269 q 415 0 508 65 l 47 0 l 47 161 l 335 161 l 339 169 l 89 618 q 35 776 35 715 q 156 972 35 921 z "},"ș":{"ha":486,"x_min":28,"x_max":456,"o":"m 129 710 l 436 710 l 436 564 l 219 564 l 351 368 q 450 194 440 242 q 456 149 456 172 q 382 0 456 50 l 28 0 l 28 146 l 282 146 l 133 364 q 103 407 124 379 q 72 452 83 435 q 57 478 61 469 q 46 499 53 486 q 36 522 39 513 q 31 565 31 549 q 129 710 31 667 m 151 -282 l 151 -92 l 318 -92 l 318 -151 q 301 -306 318 -257 q 221 -443 285 -356 l 157 -407 q 213 -282 197 -339 l 151 -282 z "},"Ț":{"ha":636,"x_min":14,"x_max":622,"o":"m 224 806 l 14 806 l 14 972 l 622 972 l 622 806 l 413 806 l 413 0 l 224 0 l 224 806 m 232 -282 l 232 -92 l 399 -92 l 399 -151 q 382 -306 399 -257 q 301 -443 365 -356 l 238 -407 q 293 -282 278 -339 l 232 -282 z "},"ț":{"ha":433,"x_min":6,"x_max":400,"o":"m 101 310 l 101 564 l 6 564 l 6 710 l 101 710 l 101 903 l 286 903 l 286 710 l 400 710 l 400 564 l 286 564 l 286 265 q 315 146 286 181 l 400 146 l 400 0 l 203 0 q 114 147 129 68 q 101 310 101 214 m 200 -282 l 200 -92 l 367 -92 l 367 -151 q 350 -306 367 -257 q 269 -443 333 -356 l 206 -407 q 261 -282 246 -339 l 200 -282 z "},"ȷ":{"ha":301,"x_min":-71,"x_max":242,"o":"m 60 710 l 242 710 l 242 71 q 217 -97 242 -35 q 113 -208 192 -160 l -71 -208 l -71 -62 l 25 -62 q 60 4 60 -42 l 60 710 z "},"ʼ":{"ha":694,"x_min":260,"x_max":432,"o":"m 260 750 l 260 921 l 432 921 l 432 876 q 415 724 432 775 q 342 597 397 672 l 275 633 q 328 750 315 696 l 260 750 z "},"ˆ":{"ha":694,"x_min":154,"x_max":542,"o":"m 265 997 l 429 997 l 542 808 l 453 763 l 347 869 l 242 763 l 154 808 l 265 997 z "},"ˇ":{"ha":694,"x_min":154,"x_max":542,"o":"m 429 763 l 265 763 l 154 951 l 242 997 l 347 890 l 453 997 l 542 951 l 429 763 z "},"ˉ":{"ha":694,"x_min":172,"x_max":522,"o":"m 172 790 l 172 929 l 522 929 l 522 790 l 172 790 z "},"˘":{"ha":694,"x_min":140,"x_max":554,"o":"m 140 982 l 271 982 q 292 911 281 924 q 314 893 303 899 l 381 893 q 411 926 404 906 q 424 982 419 956 l 554 982 q 408 761 544 817 l 286 761 q 140 982 150 817 z "},"˙":{"ha":694,"x_min":254,"x_max":438,"o":"m 254 972 l 438 972 l 438 785 l 254 785 l 254 972 z "},"˚":{"ha":694,"x_min":174,"x_max":521,"o":"m 285 1103 l 410 1103 q 521 929 521 1049 q 492 831 521 876 q 410 761 463 786 l 285 761 q 203 831 232 786 q 174 929 174 876 q 285 1103 174 1049 m 321 863 l 372 863 q 401 932 401 892 q 372 999 401 972 l 321 999 q 293 931 293 971 q 321 863 293 890 z "},"˛":{"ha":694,"x_min":208,"x_max":472,"o":"m 317 17 l 464 0 l 375 -176 l 381 -183 l 472 -183 l 472 -315 l 260 -315 q 208 -221 208 -283 q 225 -147 208 -181 l 244 -107 q 275 -56 250 -97 l 317 17 z "},"˜":{"ha":694,"x_min":165,"x_max":529,"o":"m 413 774 l 279 808 q 165 776 250 808 l 165 915 q 285 953 254 953 l 419 915 q 529 935 447 915 l 529 793 q 413 774 444 772 z "},"˝":{"ha":694,"x_min":108,"x_max":582,"o":"m 314 821 l 451 1060 l 582 975 l 421 758 l 314 821 m 108 808 l 224 1058 l 363 988 l 221 757 l 108 808 z "},"Ẁ":{"ha":894,"x_min":14,"x_max":881,"o":"m 546 0 l 449 574 l 443 574 l 343 0 l 149 0 l 14 972 l 200 972 l 239 686 l 268 364 l 275 364 l 326 685 l 369 972 l 526 972 l 568 685 l 621 364 l 628 364 l 656 686 l 694 972 l 881 972 l 746 0 l 546 0 m 343 1249 l 597 1135 l 553 1014 l 289 1094 l 343 1249 z "},"ẁ":{"ha":950,"x_min":56,"x_max":894,"o":"m 567 710 l 383 710 l 383 146 l 285 146 q 240 340 240 217 l 240 710 l 56 710 l 56 340 q 186 0 56 92 l 301 0 q 472 64 403 0 q 649 0 542 0 l 764 0 q 894 340 894 106 l 894 710 l 710 710 l 710 349 q 664 146 710 219 l 567 146 l 567 710 m 378 1010 l 615 871 l 560 758 l 313 867 l 378 1010 z "},"Ẃ":{"ha":894,"x_min":14,"x_max":881,"o":"m 546 0 l 449 574 l 443 574 l 343 0 l 149 0 l 14 972 l 200 972 l 239 686 l 268 364 l 275 364 l 326 685 l 369 972 l 526 972 l 568 685 l 621 364 l 628 364 l 656 686 l 694 972 l 881 972 l 746 0 l 546 0 m 314 1135 l 568 1249 l 621 1094 l 358 1014 l 314 1135 z "},"ẃ":{"ha":950,"x_min":56,"x_max":894,"o":"m 383 710 l 567 710 l 567 146 l 664 146 q 710 349 710 219 l 710 710 l 894 710 l 894 340 q 764 0 894 106 l 649 0 q 472 64 542 0 q 301 0 403 0 l 186 0 q 56 340 56 92 l 56 710 l 240 710 l 240 340 q 285 146 240 217 l 383 146 l 383 710 m 339 871 l 576 1010 l 642 867 l 394 758 l 339 871 z "},"Ẅ":{"ha":894,"x_min":14,"x_max":881,"o":"m 546 0 l 449 574 l 443 574 l 343 0 l 149 0 l 14 972 l 200 972 l 239 686 l 268 364 l 275 364 l 326 685 l 369 972 l 526 972 l 568 685 l 621 364 l 628 364 l 656 686 l 694 972 l 881 972 l 746 0 l 546 0 m 236 1014 l 236 1201 l 419 1201 l 419 1014 l 236 1014 m 476 1014 l 476 1201 l 660 1201 l 660 1014 l 476 1014 z "},"ẅ":{"ha":950,"x_min":56,"x_max":894,"o":"m 383 710 l 567 710 l 567 146 l 664 146 q 710 349 710 219 l 710 710 l 894 710 l 894 340 q 764 0 894 106 l 649 0 q 472 64 542 0 q 301 0 403 0 l 186 0 q 56 340 56 92 l 56 710 l 240 710 l 240 340 q 285 146 240 217 l 383 146 l 383 710 m 258 785 l 258 972 l 442 972 l 442 785 l 258 785 m 499 785 l 499 972 l 682 972 l 682 785 l 499 785 z "},"Ỳ":{"ha":614,"x_min":0,"x_max":614,"o":"m 408 0 l 206 0 l 206 324 l 0 972 l 189 972 l 275 676 l 304 506 l 310 506 l 339 676 l 425 972 l 614 972 l 408 324 l 408 0 m 163 1249 l 417 1135 l 372 1014 l 108 1094 l 163 1249 z "},"ỳ":{"ha":657,"x_min":49,"x_max":601,"o":"m 56 390 q 94 188 56 281 q 200 42 133 96 l 296 42 l 288 26 q 247 -33 267 -12 q 199 -62 228 -54 l 49 -62 l 49 -208 l 268 -208 q 340 -178 313 -199 q 393 -114 368 -157 l 486 38 q 574 217 547 138 q 601 400 601 296 l 601 710 l 417 710 l 417 389 q 371 188 417 267 l 289 188 q 240 389 240 268 l 240 710 l 56 710 l 56 390 m 199 1010 l 436 871 l 381 758 l 133 867 l 199 1010 z "},"–":{"ha":578,"x_min":0,"x_max":578,"o":"m 0 321 l 0 479 l 578 479 l 578 321 l 0 321 z "},"—":{"ha":1101,"x_min":0,"x_max":1101,"o":"m 0 321 l 0 479 l 1101 479 l 1101 321 l 0 321 z "},"‘":{"ha":300,"x_min":56,"x_max":244,"o":"m 242 864 l 242 676 l 56 676 l 56 725 q 73 895 56 839 q 165 1056 90 951 l 244 1011 q 172 864 182 904 l 242 864 z "},"’":{"ha":300,"x_min":56,"x_max":244,"o":"m 58 856 l 58 1043 l 244 1043 l 244 994 q 227 824 244 881 q 135 664 210 768 l 56 708 q 128 856 118 815 l 58 856 z "},"‚":{"ha":300,"x_min":56,"x_max":244,"o":"m 58 0 l 58 188 l 244 188 l 244 158 q 227 -28 244 31 q 135 -192 210 -86 l 56 -147 q 75 -114 63 -137 q 94 -79 75 -114 q 104 -62 101 -67 q 112 -47 107 -57 q 119 -31 117 -37 q 123 -17 121 -25 q 128 0 125 -8 l 58 0 z "},"“":{"ha":553,"x_min":56,"x_max":497,"o":"m 242 864 l 242 676 l 56 676 l 56 725 q 73 895 56 839 q 165 1056 90 951 l 244 1011 q 172 864 182 904 l 242 864 m 494 864 l 494 676 l 308 676 l 308 725 q 326 895 308 839 q 418 1056 343 951 l 497 1011 q 425 864 435 904 l 494 864 z "},"”":{"ha":553,"x_min":56,"x_max":497,"o":"m 311 857 l 311 1044 l 497 1044 l 497 996 q 480 826 497 882 q 388 665 463 769 l 308 710 q 381 857 371 817 l 311 857 m 58 857 l 58 1044 l 244 1044 l 244 996 q 227 826 244 882 q 135 665 210 769 l 56 710 q 128 857 118 817 l 58 857 z "},"„":{"ha":553,"x_min":56,"x_max":497,"o":"m 311 0 l 311 188 l 497 188 l 497 139 q 480 -31 497 25 q 388 -192 463 -87 l 308 -147 q 381 0 371 -40 l 311 0 m 58 0 l 58 188 l 244 188 l 244 139 q 227 -31 244 25 q 135 -192 210 -87 l 56 -147 q 75 -114 63 -137 q 94 -79 75 -114 q 104 -62 101 -67 q 112 -47 107 -57 q 119 -31 117 -37 q 123 -17 121 -25 q 128 0 125 -8 l 58 0 z "},"†":{"ha":586,"x_min":42,"x_max":493,"o":"m 351 0 l 183 0 l 183 599 l 42 599 l 42 751 l 183 751 l 183 972 l 351 972 l 351 751 l 493 751 l 493 599 l 351 599 l 351 0 z "},"‡":{"ha":586,"x_min":42,"x_max":493,"o":"m 351 0 l 183 0 l 183 249 l 42 249 l 42 401 l 183 401 l 183 599 l 42 599 l 42 751 l 183 751 l 183 972 l 351 972 l 351 751 l 493 751 l 493 599 l 351 599 l 351 401 l 493 401 l 493 249 l 351 249 l 351 0 z "},"•":{"ha":365,"x_min":56,"x_max":310,"o":"m 56 607 l 310 607 l 310 324 l 56 324 l 56 607 z "},"…":{"ha":956,"x_min":56,"x_max":900,"o":"m 56 206 l 256 206 l 256 0 l 56 0 l 56 206 m 378 206 l 578 206 l 578 0 l 378 0 l 378 206 m 700 206 l 900 206 l 900 0 l 700 0 l 700 206 z "},"‰":{"ha":1415,"x_min":14,"x_max":1401,"o":"m 124 972 l 308 972 q 418 719 418 867 q 308 467 418 571 l 124 467 q 14 719 14 571 q 124 972 14 867 m 193 575 l 240 575 q 281 724 281 644 q 239 864 281 804 l 194 864 q 153 724 153 804 q 193 575 153 644 m 663 506 l 847 506 q 957 252 957 400 q 847 0 957 104 l 663 0 q 553 252 553 104 q 663 506 553 400 m 732 108 l 779 108 q 819 258 819 178 q 778 397 819 338 l 733 397 q 692 258 692 338 q 732 108 692 178 m 1107 506 l 1292 506 q 1401 252 1401 400 q 1292 0 1401 104 l 1107 0 q 997 252 997 104 q 1107 506 997 400 m 1176 108 l 1224 108 q 1264 258 1264 178 q 1222 397 1264 338 l 1178 397 q 1136 258 1136 338 q 1176 108 1136 178 m 564 972 l 256 0 l 407 0 l 721 972 l 564 972 z "},"‹":{"ha":389,"x_min":49,"x_max":354,"o":"m 231 82 l 49 339 l 217 607 l 340 539 l 222 339 l 354 150 l 231 82 z "},"›":{"ha":389,"x_min":35,"x_max":340,"o":"m 340 339 l 158 82 l 35 150 l 167 339 l 49 539 l 172 607 l 340 339 z "},"⁄":{"ha":424,"x_min":14,"x_max":479,"o":"m 14 0 l 322 972 l 479 972 l 165 0 l 14 0 z "},"€":{"ha":692,"x_min":31,"x_max":671,"o":"m 47 517 l 64 607 l 140 607 q 165 726 147 675 q 336 972 221 879 l 671 972 l 671 806 l 431 806 q 351 607 374 733 l 576 607 l 560 517 l 47 517 m 31 368 l 47 458 l 547 458 l 531 368 l 350 368 q 431 161 371 233 l 671 161 l 671 0 l 313 0 q 164 249 214 92 q 140 368 149 294 l 31 368 z "},"™":{"ha":951,"x_min":7,"x_max":933,"o":"m 613 497 l 572 683 l 567 683 l 556 415 l 408 415 l 446 972 l 597 972 l 650 785 l 668 671 l 674 671 l 690 785 l 751 972 l 896 972 l 933 415 l 786 415 l 776 683 l 769 683 l 729 497 l 613 497 m 7 972 l 7 832 l 121 832 l 121 415 l 278 415 l 278 832 l 392 832 l 392 972 l 7 972 z "},"−":{"ha":478,"x_min":7,"x_max":471,"o":"m 7 403 l 7 538 l 471 538 l 471 403 l 7 403 z "},"∕":{"ha":549,"x_min":14,"x_max":479,"o":"m 14 0 l 322 972 l 479 972 l 165 0 l 14 0 z "},"∙":{"ha":267,"x_min":56,"x_max":211,"o":"m 56 582 l 211 582 l 211 410 l 56 410 l 56 582 z "},"≈":{"ha":656,"x_min":56,"x_max":600,"o":"m 422 532 l 233 599 q 56 557 158 593 l 56 736 q 155 768 122 761 q 233 778 188 775 l 422 711 q 600 735 492 711 l 600 556 q 422 532 513 533 m 422 219 l 233 286 q 56 244 158 281 l 56 424 q 155 456 122 449 q 233 465 188 463 l 422 399 q 600 422 492 399 l 600 243 q 422 219 513 221 z "},"≠":{"ha":575,"x_min":56,"x_max":519,"o":"m 68 81 l 378 792 l 508 792 l 199 81 l 68 81 m 56 514 l 56 649 l 519 649 l 519 514 l 56 514 m 56 236 l 56 371 l 519 371 l 519 236 l 56 236 z "},"≤":{"ha":526,"x_min":28,"x_max":499,"o":"m 28 0 l 28 135 l 492 135 l 492 0 l 28 0 m 428 200 l 28 401 l 28 540 l 428 742 l 499 599 l 217 471 l 499 343 l 428 200 z "},"≥":{"ha":526,"x_min":35,"x_max":568,"o":"m 35 0 l 35 135 l 499 135 l 499 0 l 35 0 m 568 401 l 168 200 l 97 343 l 379 471 l 97 599 l 168 742 l 568 540 l 568 401 z "},"ﬀ":{"ha":788,"x_min":13,"x_max":803,"o":"m 246 972 l 404 972 l 404 826 l 321 826 q 274 710 274 797 l 446 710 q 603 972 446 890 l 803 972 l 803 826 l 678 826 q 631 710 631 797 l 775 710 l 775 564 l 631 564 l 631 0 l 446 0 l 446 564 l 274 564 l 274 0 l 89 0 l 89 564 l 13 564 l 13 710 l 89 710 q 246 972 89 890 z "},"ﬁ":{"ha":689,"x_min":13,"x_max":629,"o":"m 246 972 l 390 972 l 390 826 l 321 826 q 274 710 274 797 l 629 710 l 629 0 l 446 0 l 446 564 l 274 564 l 274 0 l 89 0 l 89 564 l 13 564 l 13 710 l 89 710 q 246 972 89 890 m 446 972 l 629 972 l 629 785 l 446 785 l 446 972 z "},"ﬂ":{"ha":689,"x_min":13,"x_max":629,"o":"m 629 972 l 629 0 l 446 0 l 446 564 l 274 564 l 274 0 l 89 0 l 89 564 l 13 564 l 13 710 l 89 710 q 246 972 89 890 l 389 972 l 389 826 l 321 826 q 274 710 274 797 l 446 710 l 446 972 l 629 972 z "},"ﬃ":{"ha":1046,"x_min":13,"x_max":986,"o":"m 603 972 l 747 972 l 747 826 l 678 826 q 631 710 631 797 l 986 710 l 986 0 l 803 0 l 803 564 l 631 564 l 631 0 l 446 0 l 446 564 l 274 564 l 274 0 l 89 0 l 89 564 l 13 564 l 13 710 l 89 710 q 246 972 89 890 l 404 972 l 404 826 l 321 826 q 274 710 274 797 l 446 710 q 603 972 446 890 m 803 972 l 986 972 l 986 785 l 803 785 l 803 972 z "},"ﬄ":{"ha":1044,"x_min":13,"x_max":985,"o":"m 985 972 l 985 0 l 801 0 l 801 564 l 629 564 l 629 0 l 444 0 l 444 564 l 274 564 l 274 0 l 89 0 l 89 564 l 13 564 l 13 710 l 89 710 q 246 972 89 890 l 404 972 l 404 826 l 321 826 q 274 710 274 797 l 444 710 q 601 972 444 890 l 744 972 l 744 826 l 676 826 q 629 710 629 797 l 801 710 l 801 972 l 985 972 z "}}}
